<?xml version="1.0" encoding="UTF-8" standalone="no"?>
<svg
   viewBox="0 0 256 256"
   version="1.1"
   id="svg3"
   width="256"
   height="256"
   xml:space="preserve"
   xmlns="http://www.w3.org/2000/svg"
   xmlns:svg="http://www.w3.org/2000/svg"><defs
     id="defs3" /><path
     id="path3"
     style="opacity:0.999;fill:#4b6084;stroke-width:3.80971;stroke-linecap:round;fill-opacity:1"
     d="M 128 0 A 128 128 0 0 0 0 128 A 128 128 0 0 0 128 256 A 128 128 0 0 0 256 128 A 128 128 0 0 0 128 0 z M 40.5 68.082031 L 215.49609 68.082031 L 215.49609 92.240234 L 40.5 92.240234 L 40.5 68.082031 z M 40.503906 103.65234 L 215.5 103.65234 L 215.5 187.91797 L 40.503906 187.91797 L 40.503906 103.65234 z M 67.130859 123.81445 C 62.531427 134.10266 62.531427 145.86409 67.130859 156.15234 L 86.152344 156.15234 L 86.152344 123.81445 L 67.130859 123.81445 z M 169.8457 123.81445 L 169.8457 156.15234 L 188.86719 156.15234 C 193.46666 145.86409 193.46666 134.10301 188.86719 123.81445 L 169.8457 123.81445 z M 104.22266 123.91211 L 104.22266 156.24805 L 151.77734 156.24805 L 151.77734 123.91211 L 104.22266 123.91211 z " /></svg>
