<svg viewBox="0 0 24 24" xmlns="http://www.w3.org/2000/svg">
  <g transform="matrix(1.88882 0 0 1.88882 -10.666 -11.148)" style="stroke-width:.529431">
    <path d="m16.18 7.76-1.06 1.06-1.06-1.06L13 8.82l1.06 1.06L13 10.94 14.06 12l1.06-1.06L16.18 12l1.06-1.06-1.06-1.06 1.06-1.06-1.06-1.06M7.82 12l1.06-1.06L9.94 12 11 10.94 9.94 9.88 11 8.82 9.94 7.76 8.88 8.82 7.82 7.76 6.76 8.82l1.06 1.06-1.06 1.06L7.82 12" style="stroke-width:.529431"/>
    <circle style="opacity:.999;stroke:none;stroke-width:.668142;stroke-linecap:round;stroke-linejoin:round" cx="12" cy="15.237" r="1.514"/>
  </g>
</svg>
