<svg xmlns="http://www.w3.org/2000/svg" viewBox="0 0 940 940"><defs><radialGradient id="b" cx="577.23" cy="270.8" r="350.24" gradientTransform="matrix(1 0 0 -.95 0 912.55)" gradientUnits="userSpaceOnUse"><stop offset=".72" stop-opacity="0"/><stop offset=".95" stop-opacity=".53"/><stop offset="1"/></radialGradient><radialGradient id="d" cx="235.46" cy="975.64" r="525.94" gradientTransform="matrix(.15 -.99 -.8 -.12 1004.34 1079.01)" gradientUnits="userSpaceOnUse"><stop offset=".76" stop-opacity="0"/><stop offset=".95" stop-opacity=".5"/><stop offset="1"/></radialGradient><radialGradient id="e" cx="571.11" cy="482.55" r="743.3" gradientTransform="matrix(-.04 1 2.13 .08 -913.16 -437.04)" gradientUnits="userSpaceOnUse"><stop offset="0" stop-color="#35c1f1"/><stop offset=".11" stop-color="#34c1ed"/><stop offset=".23" stop-color="#2fc2df"/><stop offset=".31" stop-color="#2bc3d2"/><stop offset=".67" stop-color="#36c752"/></radialGradient><radialGradient id="f" cx="870.77" cy="764.62" r="357.41" gradientTransform="matrix(.28 .96 .78 -.23 46.45 -375.34)" gradientUnits="userSpaceOnUse"><stop offset="0" stop-color="#66eb6e"/><stop offset="1" stop-color="#66eb6e" stop-opacity="0"/></radialGradient><linearGradient id="a" x1="215.55" y1="291.31" x2="870.38" y2="291.31" gradientTransform="matrix(1 0 0 -1 0 941.41)" gradientUnits="userSpaceOnUse"><stop offset="0" stop-color="#0c59a4"/><stop offset="1" stop-color="#114a8b"/></linearGradient><linearGradient id="c" x1="560.78" y1="575.39" x2="151.75" y2="129.86" gradientTransform="matrix(1 0 0 -1 0 941.41)" gradientUnits="userSpaceOnUse"><stop offset="0" stop-color="#1b9de2"/><stop offset=".16" stop-color="#1595df"/><stop offset=".67" stop-color="#0680d7"/><stop offset="1" stop-color="#0078d4"/></linearGradient></defs><path d="M848.39 699.62a345.49 345.49 0 0 1-38.68 17.31 374.76 374.76 0 0 1-131.82 23.73c-173.75 0-325.12-119.53-325.12-272.9 0-43.13 25-80.51 60.31-100.2C256 374.14 215.55 537.93 215.55 633.88c0 271.25 250 298.78 303.89 298.78 29 0 72.85-8.46 99.25-16.74q2.41-.79 4.81-1.63A471.25 471.25 0 0 0 868 720.35c8.12-12.86-6.14-27.79-19.61-20.73Z" fill="url(#a)"/><path d="M848.39 699.62a345.49 345.49 0 0 1-38.68 17.31 374.76 374.76 0 0 1-131.82 23.73c-173.75 0-325.12-119.53-325.12-272.9 0-43.13 25-80.51 60.31-100.2C256 374.14 215.55 537.93 215.55 633.88c0 271.25 250 298.78 303.89 298.78 29 0 72.85-8.46 99.25-16.74q2.41-.79 4.81-1.63A471.25 471.25 0 0 0 868 720.35c8.12-12.86-6.14-27.79-19.61-20.73Z" opacity=".35" fill="url(#b)" style="isolation:isolate"/><path d="M388.16 886.44A290.4 290.4 0 0 1 304.68 808a299 299 0 0 1-55.56-174.07c0-96 44.67-180.93 113.54-234.78 15.64-12.23 35.67-24.56 50.42-31.54 11.46-5.43 31.06-15.2 57.09-14.83a118.83 118.83 0 0 1 94.31 47.6 116.92 116.92 0 0 1 23.34 68.52c0-.77 89.83-292.3-293.93-292.3C132.72 176.55 0 329.56 0 463.75c0 85.12 19.75 153.08 44.48 205.75a470.18 470.18 0 0 0 574.21 246.42 278.2 278.2 0 0 1-83.42 12.82c-53.87 0-104.08-15.63-147.11-42.3Z" fill="url(#c)"/><path d="M388.16 886.44A290.4 290.4 0 0 1 304.68 808a299 299 0 0 1-55.56-174.07c0-96 44.67-180.93 113.54-234.78 15.64-12.23 35.67-24.56 50.42-31.54 11.46-5.43 31.06-15.2 57.09-14.83a118.83 118.83 0 0 1 94.31 47.6 116.92 116.92 0 0 1 23.34 68.52c0-.77 89.83-292.3-293.93-292.3C132.72 176.55 0 329.56 0 463.75c0 85.12 19.75 153.08 44.48 205.75a470.18 470.18 0 0 0 574.21 246.42 278.2 278.2 0 0 1-83.42 12.82c-53.87 0-104.08-15.63-147.11-42.3Z" opacity=".41" fill="url(#d)" style="isolation:isolate"/><path d="M559.28 546.59c-3 3.85-12.13 9.17-12.13 20.79 0 9.57 6.24 18.79 17.34 26.54 52.8 36.85 152.33 31.88 152.59 31.88 41.09-.14 78-11.44 111.16-30.8a225.7 225.7 0 0 0 41.57-31.21C913 522.8 939.25 465 940 400.86c.93-82.31-29.23-137-41.63-161.26C820.53 87.52 652.56 0 469.92 0 212.47 0 3.48 206.9 0 463.39c1.75-134.18 135.1-242.53 293.63-242.53 12.85 0 86.15 1.25 154.23 37 60 31.47 91.43 69.51 113.28 107.24 22.7 39.18 26.73 88.67 26.73 108.39s-9.87 48.93-28.59 73.1Z" fill="url(#e)"/><path d="M559.28 546.59c-3 3.85-12.13 9.17-12.13 20.79 0 9.57 6.24 18.79 17.34 26.54 52.8 36.85 152.33 31.88 152.59 31.88 41.09-.14 78-11.44 111.16-30.8a225.7 225.7 0 0 0 41.57-31.21C913 522.8 939.25 465 940 400.86c.93-82.31-29.23-137-41.63-161.26C820.53 87.52 652.56 0 469.92 0 212.47 0 3.48 206.9 0 463.39c1.75-134.18 135.1-242.53 293.63-242.53 12.85 0 86.15 1.25 154.23 37 60 31.47 91.43 69.51 113.28 107.24 22.7 39.18 26.73 88.67 26.73 108.39s-9.87 48.93-28.59 73.1Z" fill="url(#f)"/></svg>
