<svg width="128" height="128" viewBox="0 0 33.867 33.867" xml:space="preserve" xmlns="http://www.w3.org/2000/svg">
  <path d="M60.68 81.291c-.642-.64-.685-1.29-.206-3.125 1.308-5.023 6.534-8.813 12.151-8.813s10.843 3.79 12.151 8.813c.479 1.836.436 2.484-.205 3.125l-.548.548H61.227Zm20.2-3.201c0-.403-1.317-2.213-2.126-2.921-.475-.417-1.522-1.07-2.325-1.45-1.346-.638-1.646-.692-3.804-.692-2.157 0-2.458.054-3.803.692-.803.38-1.85 1.033-2.326 1.45-.808.708-2.125 2.518-2.125 2.92 0 .1 3.714.18 8.255.18 4.54 0 8.254-.08 8.254-.18zM63.59 67.36c-.993-.437-1.562-1.343-1.562-2.49 0-.937.104-1.197.73-1.823.627-.627.883-.73 1.836-.73.952 0 1.208.103 1.836.73.628.628.73.884.73 1.837 0 .94-.105 1.21-.69 1.797-.737.736-2.046 1.045-2.88.678zm16.063 0c-.993-.437-1.562-1.343-1.562-2.49 0-.937.104-1.197.73-1.823.627-.627.883-.73 1.836-.73.952 0 1.208.103 1.836.73.628.628.73.884.73 1.837 0 .94-.105 1.21-.69 1.797-.737.736-2.046 1.045-2.88.678zm-14.946-7.95c-4.08-1.044-4.575-1.325-4.575-2.593 0-.795.882-1.752 1.607-1.744.282.003 2.269.45 4.416.992 4.202 1.062 4.685 1.331 4.685 2.607 0 .86-.89 1.756-1.718 1.73-.343-.012-2.33-.458-4.415-.992zm10.25.464c-.332-.333-.547-.805-.547-1.202 0-1.276.483-1.545 4.685-2.607 2.147-.543 4.135-.99 4.416-.992.726-.008 1.608.95 1.608 1.744 0 1.275-.484 1.544-4.685 2.607-2.148.542-4.135.989-4.417.992-.281.003-.758-.24-1.06-.542z" style="stroke-width:1" transform="translate(-55.667 -51.032)"/>
</svg>
