<svg width="64" height="64" viewBox="0 0 24 24" fill="none" xmlns="http://www.w3.org/2000/svg"><path fill-rule="evenodd" clip-rule="evenodd" d="M5 6a1 1 0 1 0 0-2 1 1 0 0 0 0 2Zm13 7a1 1 0 1 0-2 0v3h-3a1 1 0 1 0 0 2h3v3a1 1 0 1 0 2 0v-3h3a1 1 0 1 0 0-2h-3v-3Zm-8-8a1 1 0 1 1-2 0 1 1 0 0 1 2 0Zm3 1a1 1 0 1 0 0-2 1 1 0 0 0 0 2Zm5-1a1 1 0 1 1-2 0 1 1 0 0 1 2 0Zm-1 5a1 1 0 1 0 0-2 1 1 0 0 0 0 2Zm-7 7a1 1 0 1 1-2 0 1 1 0 0 1 2 0Zm-5 1a1 1 0 1 0 0-2 1 1 0 0 0 0 2Zm1-5a1 1 0 1 1-2 0 1 1 0 0 1 2 0Zm-1-3a1 1 0 1 0 0-2 1 1 0 0 0 0 2Z" fill="#000"/></svg>
