<svg width="1544" height="500" version="1.1" viewBox="0 0 408.51 132.29" xml:space="preserve" xmlns="http://www.w3.org/2000/svg" xmlns:xlink="http://www.w3.org/1999/xlink"><defs><linearGradient id="linearGradient40" x1="212.51" x2="213.38" y1="132.45" y2=".13464" gradientUnits="userSpaceOnUse"><stop stop-color="#24acf2" offset="0"/><stop stop-color="#bce7fa" offset="1"/></linearGradient></defs>
  
  <rect x="-.0025713" y="-8.7646e-7" width="408.52" height="132.29" fill="url(#linearGradient40)" opacity=".999" stroke-linecap="round" stroke-linejoin="round" stroke-width=".465"/><text x="200.27574" y="7.6688037" font-family="'Apple Braille'" font-size="25.477px" stroke-width=".26458" style="line-height:1.25" xml:space="preserve"><tspan x="200.27574" y="7.6688037" font-family="Arial" stroke-width=".26458"/></text><g transform="translate(1.0157)"><circle cx="168.61" cy="29.242" r="14.476" fill="#fff" opacity=".999" stroke-linecap="round" stroke-linejoin="round" stroke-width=".465"/><path d="m187.64 16.625v13.866h2.2971v-11.553h8.0556c0.66119 0 1.2017 0.53866 1.2017 1.1998v10.353h2.3139v-11.448c0-1.3398-1.0786-2.4184-2.4184-2.4184zm16.182 0v2.3139h13.868v-2.3139zm16.182 0v11.448c0 1.3398 1.0786 2.4184 2.4184 2.4184h11.448v-2.3139h-10.353c-0.66118 0-1.1998-0.53866-1.1998-1.1998v-10.353zm16.163 0v13.866h2.3138v-13.866zm7.0293 0c-1.3398 0-2.3997 1.0773-2.3997 2.3997v9.0651c0 1.3398 1.0773 2.4016 2.3997 2.4016h9.0651c1.3224 0 2.4016-1.0792 2.4016-2.4016v-9.0651c0-1.3398-1.0792-2.3997-2.4016-2.3997zm1.0972 2.2971h6.8558c0.66119 0 1.1831 0.53866 1.1831 1.1998v6.8558c0 0.66119-0.52187 1.1831-1.1831 1.1831h-6.8558c-0.66118 0-1.1831-0.52187-1.1831-1.1831v-6.8558c0-0.66118 0.52188-1.1998 1.1831-1.1998zm-40.472 3.4783v2.3157h13.868v-2.3157zm0 5.7772v2.3139h13.868v-2.3139z" fill="#095c8a" stroke-width=".26458"/><path d="m168.66 12.11a16.907 16.907 0 0 0-16.907 16.907 16.907 16.907 0 0 0 16.907 16.907 16.907 16.907 0 0 0 16.907-16.907 16.907 16.907 0 0 0-16.907-16.907zm-11.558 8.9928h23.115v3.191h-23.115zm5.1e-4 4.6984h23.115v11.13h-23.115zm3.5171 2.6632c-0.60753 1.359-0.60753 2.9125 0 4.2714h2.5125v-4.2714zm13.567 0v4.2714h2.5125c0.60753-1.359 0.60753-2.9124 0-4.2714zm-8.668 0.01297v4.2712h6.2814v-4.2712z" fill="#f054ac" opacity=".999" stroke-linecap="round" stroke-width="1.008"/><text transform="scale(1.0151 .98517)" x="183.6927" y="42.686829" fill="#ffffff" font-family="sans-serif" font-size="12.598px" letter-spacing="-.23283px" stroke-width=".26458" style="line-height:0" xml:space="preserve"><tspan x="183.6927" y="42.686829" fill="#ffffff" font-family="Montserrat" font-size="12.598px" font-weight="600" letter-spacing="-.23283px" stroke-width=".26458" style="line-height:0">recordings</tspan></text></g><circle cx="105.49" cy="61.089" r="3.7638" fill="#fff" opacity=".999" stroke-dasharray="4.7625, 4.7625" stroke-linecap="round" stroke-linejoin="round" stroke-width=".465"/><g transform="translate(4.3462 -1.1211)"><path d="m369.76 57.889 1.7085 1.1042-1.1057 4.8241-3.217 1.7085-9.6453-1.3071-0.50283-4.1198-1.6085 0.10144-1.607-3.1156 0.60282-2.6127 2.6128-1.2057 0.3014-6.3311-16.479-0.70282 14.771-7.3354 3.517 0.70282-0.70283-4.0198-2.2113-0.4014-1.9085-1.4056-0.90424-2.0114-0.60282-2.3113-0.20143-1.9085 2.8142-2.3113 2.9127-2.0099-0.1-3.517 2.1114-0.10144v1.9099l-1.0057 2.5128 5.8283 4.0198-0.30142 1.8085-0.70281 0.60283v6.5311l1.0042 2.8142 8.441 2.6127-6.1297 9.1439zm-340.15 25.623-12.962-12.158-0.60283-2.4128 0.80425-2.5113 2.3099-0.30141 3.217 1.3056-2.9156-8.541 0.70427-4.9241 2.4113-0.80426 2.6127 0.90424 4.2198 6.2312 1.0057 1.6085 0.70282-6.0297 2.0099-5.9297 2.4113-1.0042 1.9099 1.6085 1.6085 4.9226-0.80425 6.934 1.9085 2.1099 0.80426 3.417-1.3056 5.124-3.1156 5.3269-4.8241 4.8226zm61.297-8.7425 4.5212 0.60283 2.1099 1.2057 0.90424 0.70427 2.7142 4.5212 1.6085 4.5212 1.4056 5.5283 1.2057 4.6227-1.5071 0.70282 0.90425 2.7127 6.7326 1.8085 0.80425 1.0057 0.30142 1.9085-10.551-0.10144-0.30142-0.90279 0.10144-2.5128-1.1071-3.717h-1.2057l-4.9241-11.355-2.2099-2.8142-1.1057-0.10144 1.0042 14.772-0.19998 3.317-6.7326 0.30142 0.30141 1.3056h1.7085l1.9085 0.50284 1.8085 0.50139 1.1057 0.70427 0.30141 1.0042 0.10144 1.71-5.7283-0.50429-4.9241-0.80281 0.4014-2.8142-0.30142-1.7085-17.483-0.60283-20.7-1.4056 1.0042-18.491 5.4269-0.20142 0.4014-3.3156-3.717-2.8127 7.7368-28.84 7.8382-0.10144 1.4056-6.3297-1.1042-4.5212 3.3156-5.3269 9.3467 1.4071 4.1184 3.3156-2.3113 2.0099-1.7085 0.50284-1.707 5.3255-0.90424 2.2113-0.80426 0.30141h-1.0057l-1.1042-0.20142-0.30141-0.10144-0.70427 2.3128 3.0141 0.4014 5.7283 5.4269 1.5071 9.4453 9.2453 5.2255z" fill="#fff"/><g transform="matrix(1.4491 0 0 1.4491 8.2068 9.7555)" stroke-width=".69008">
  <path transform="translate(-1.259 -.4)" d="m27.855 59.255a0.97 0.97 0 0 1 2e-3 0.087c0.02-8e-3 0.026-0.015 0.036-0.022-2e-3 -0.014-2e-3 -0.03-5e-3 -0.042-0.01-8e-3 -0.015-0.016-0.033-0.023zm-0.055-7.303c-0.105 0-0.141 0.068-0.09 0.167 0.038 0.075 0.108 0.083 0.167 0.03l0.041-0.093c-3e-3 -0.055-0.047-0.104-0.119-0.104z" fill="#e79904"/>
  <path transform="translate(-1.259 -.4)" d="m13.678 50.68c-0.335-9e-3 -0.283 0.243-0.292 1.717-0.01 1.81-0.07 4.865-0.141 7.278-0.045 1.514-0.045 1.562 0.028 1.632 0.136 0.134 1.228 0.22 3.443 0.275l2.173 0.056c0.399 0.011 0.786 4e-3 0.86-0.015 0.25-0.064 0.277-0.194 0.193-0.931-0.033-0.297-0.029-0.753 0.02-2.028 0.035-0.905 0.063-2.2 0.063-2.88 0-0.678 0.028-1.94 0.064-2.805 0.035-0.864 0.054-1.616 0.04-1.67-0.036-0.144-0.374-0.251-0.579-0.183-0.116 0.038-0.993 0.012-1.354-0.029-0.071 0.068-0.15 0.143-0.205 0.192-0.045 0.041-0.082 0.076-0.115 0.104-0.033 0.027-0.049 0.045-0.106 0.076a0.962 0.962 0 0 1-0.297 0.111 0.48 0.48 0 0 1-0.341-0.064c-0.012-8e-3 -4e-3 -0.025-0.014-0.033-0.036 0.045-0.02 0.119-0.076 0.15-0.139 0.076-0.27 0.01-0.4-0.034l-0.229 0.227c-0.028 0.028-0.064 0.107-0.217 0.147a0.38 0.38 0 0 1-0.22-0.016c-0.037-0.014-0.064-0.034-0.093-0.053l-0.105-0.078-0.056-0.054c-0.179-0.147-0.384-0.35-0.872-0.832l-0.152-0.148a12.99 12.99 0 0 1-0.54-0.055c-0.214-0.024-0.369-0.055-0.48-0.058z" fill="#f054ac"/>
  <path transform="translate(-1.259 -.4)" d="m33.412 41.764c-0.32 2e-3 -0.882 0.054-0.913 0.084a2.23 2.23 0 0 0-0.043 0.34c-0.027 0.323-0.026 0.324 0.074 0.298 0.14-0.035 0.162 0.025 0.248 0.622 0.071 0.498 0.07 0.504-5e-3 0.56-0.132 0.096-0.198-0.039-0.228-0.463-0.043-0.598-0.113-0.71-0.162-0.258-0.03 0.271-0.131 0.88-0.277 1.655-0.118 0.627-0.25 1.555-0.252 1.753 0 0.176 0.032 0.18 0.451 0.07 0.374-0.097 0.858-0.305 0.952-0.407 0.083-0.09 0.148-0.648 0.242-2.062 0.044-0.662 0.123-1.296 0.219-1.775 0.084-0.418 0.083-0.419-0.306-0.417z" fill="#24acf2"/>
  <path transform="translate(-1.259 -.4)" d="m48.345 36.645a0.256 0.256 0 0 0-0.058 0.014 0.26 0.26 0 0 0-0.013 0.112c2e-3 0.027 0.01 0.044 0.018 0.063 8e-3 3e-3 0.014 6e-3 0.023 8e-3a0.207 0.207 0 0 0 0.107-0.01c3e-3 -9e-3 9e-3 -0.013 0.011-0.025a0.337 0.337 0 0 0-0.01-0.15c-7e-3 -3e-3 -0.01-7e-3 -0.018-9e-3a0.194 0.194 0 0 0-0.06-3e-3z" fill="#e79904"/>
  <path transform="translate(-1.259 -.4)" d="m43.855 25.84c0.14 0.333 0.25 0.788 0.325 1.238 0.042 0.256 0.071 0.502 0.081 0.711 0.01 0.21 0.035 0.352-0.068 0.545l-0.07 0.133-0.075 2e-3c-0.027 0.02-0.037 0.053-0.07 0.066a0.412 0.412 0 0 1-0.188 0.026c9e-3 0.075 0.017 0.175 0.026 0.35 0.12 2.226 0.175 4.716 0.178 8.033 0 1.281 0.02 2.794 0.044 3.361 0.015 0.37 0.026 0.624 0.027 0.802 0.195 0.205 0.377 0.426 0.539 0.665 0.133 0.196 0.214 0.373 0.236 0.552 0.023 0.179-0.04 0.392-0.204 0.498s-0.35 0.096-0.526 0.043c-0.013-4e-3 -0.026-0.013-0.04-0.02 0.02 0.138-2e-3 0.342-0.054 0.7a6.121 6.121 0 0 0-0.058 0.692l-1e-3 0.018c1.148 0.083 1.722 0.122 1.866 0.095 0.02-4e-3 0.01-3e-3 0.013-4e-3 9e-3 -0.031 0.022-0.145 0.053-0.32 0.049-0.272 0.149-0.76 0.223-1.096 0.044-0.2 0.048-0.231 0.068-0.33-6e-3 -2e-3 -0.01 4e-3 -0.015 2e-3 -0.082-0.029-0.1-0.103-0.143-0.162-0.065 0.035-0.121 0.085-0.205 0.086a0.434 0.434 0 0 1-0.336-0.184c-0.128-0.186-0.132-0.384-0.123-0.607 0.019-0.447 0.158-0.993 0.51-1.344 0.244-0.245 0.528-0.381 0.859-0.406l0.022-2e-3 0.021-0.106 0.133-0.58c0.102-0.436 0.218-0.917 0.283-1.16 0.08-0.3 0.215-0.885 0.291-1.276l0.168-0.863c7e-3 -0.033 4e-3 -0.104 0.082-0.203s0.2-0.13 0.287-0.139c0.175-0.016 0.389 0.01 0.86 0.045 0.18 0.014 0.826 0.026 1.583 0.034-3e-3 -0.062-4e-3 -0.133-9e-3 -0.22-0.019-0.322-0.012-0.774 0.02-1.233 0.172-2.53-0.103-5.404-0.621-6.49-0.173-0.364-0.56-0.844-0.815-1.014-0.574-0.38-2.313-0.774-3.705-0.837-0.85-0.039-0.827-0.042-0.717 0.107 0.24 0.324 0.838 1.307 1.054 1.732 0.138 0.27 0.303 0.587 0.368 0.705 0.202 0.37 0.167 0.488-0.215 0.727-0.698 0.438-0.696 0.428-0.23 1.14 0.633 0.97 0.664 1.07 0.55 1.834-0.252 1.684-0.321 2.124-0.438 2.762-0.163 0.898-0.456 2.682-0.568 3.466-0.086 0.598-0.119 0.7-0.202 0.616-0.047-0.047 0.012-0.633 0.146-1.458 0.03-0.183 0.1-0.633 0.155-0.999s0.178-1.15 0.274-1.743c0.532-3.287 0.535-3.42 0.113-3.983-0.328-0.436-0.681-1.013-0.681-1.112 0-0.13 0.282-0.393 0.694-0.646 0.356-0.218 0.37-0.247 0.231-0.497a43.055 43.055 0 0 1-0.384-0.734c-0.263-0.511-0.754-1.319-0.98-1.611a0.521 0.521 0 0 1-0.11-0.243c0-0.135-0.015-0.14-0.456-0.159-0.034-1e-3 -0.048-4e-3 -0.076-5e-3zm4.447 3.82c0.1 0 0.13 0.102 0.066 0.228-0.039 0.077-0.055 0.334-0.06 0.966a38.33 38.33 0 0 1-0.182 3.565c-0.109 1.084-0.142 1.21-0.284 1.07-0.066-0.067-0.06-0.222 0.05-1.214 0.127-1.156 0.167-1.737 0.217-3.15 0.044-1.248 0.073-1.465 0.193-1.465zm-12.006-4.658a37.648 37.648 0 0 0-3.58 0.156c-3.594 0.343-4.752 1.643-5.01 5.618-0.306 4.73-0.38 11.601-0.143 13.177 0.313 2.076 0.908 2.807 2.478 3.042 0.253 0.038 0.248 0.016 0.237 1.176-4e-3 0.36 7e-3 0.61-0.01 0.784 0.104 6e-3 0.25 0.107 0.292 0.195 0.087 0.18 0.074 0.31 0.102 0.614 0.044 0.463 0.096 0.648 0.211 0.752s0.4 0.196 0.98 0.293a26.94 26.94 0 0 1 1.551 0.334c0.526 0.128 1.093 0.257 1.198 0.275 0.166 0.03 0.54 0.117 0.874 0.203 0.23 0.06 0.401 0.1 0.5 0.112 0.035 4e-3 0.042 3e-3 0.053 4e-3a0.5 0.5 0 0 0 0.018-0.112c8e-3 -0.127 0-0.329-0.01-0.601-7e-3 -0.182-0.026-0.346 0.054-0.534 0.043-0.099 0.12-0.18 0.215-0.242-0.024-0.064-0.023-0.25 7e-3 -0.737 0.024-0.395 0.062-1.15 0.084-1.677 0.046-1.095 0.095-1.743 0.163-2.164a0.333 0.333 0 0 1-0.058-0.072c-0.037-0.061-0.026-0.09-0.03-0.133-0.775 0.289-1.538 0.552-2.627 0.818-0.027 7e-3 -0.056 0.015-0.11 0.014a0.345 0.345 0 0 1-0.19-0.069l-0.015 0.015c-0.365 0.238-1.574 0.55-1.801 0.464-0.106-0.04-0.137-0.038-0.186 0.01-0.07 0.07-0.243 0.077-0.308 0.012-0.15-0.15 0.056-0.318 0.263-0.215 0.148 0.074 0.136 0.117 0.198-0.723 0.024-0.337 0.07-0.805 0.101-1.038 0.126-0.954 0.22-2.027 0.232-2.618 8e-3 -0.448 0.04-0.795 0.11-1.215 0.056-0.323 0.147-0.895 0.204-1.272s0.25-1.576 0.43-2.664a429.18 429.18 0 0 0 0.573-3.525c0.143-0.86 0.304-1.98 0.352-2.44 0.043-0.41 0.093-0.589 0.162-0.571 0.01 2e-3 0.02 9e-3 0.03 0.02 0.064 0.062-0.103 1.499-0.329 2.815-0.055 0.323-0.172 1.063-0.26 1.645-0.087 0.582-0.254 1.63-0.371 2.33-0.371 2.224-0.664 4.266-0.62 4.312 0.019 0.018 0.28 8e-3 0.582-0.023 0.505-0.052 0.808-0.073 0.979-0.012a0.439 0.439 0 0 1 0.064-0.078c0.086-0.082 0.139-0.094 0.221-0.129s0.182-0.072 0.303-0.113c0.24-0.082 0.559-0.178 0.933-0.283a51.75 51.75 0 0 1 1.937-0.493 69.29 69.29 0 0 1 0.103-3.102c0.063-1.061 0.079-1.468 0.14-3.486 0.044-1.389 0.058-1.709 0.238-5.19 0.062-1.207 0.094-1.842 0.128-2.18a10.88 10.88 0 0 1-0.182-0.374 6.183 6.183 0 0 1-0.186-0.449c-0.047-0.13-0.085-0.213-0.085-0.351 0-0.049-2e-3 -0.092 7e-3 -0.155a0.433 0.433 0 0 1 0.032-0.1c-0.325-0.03-0.74-0.047-1.227-0.05zm0.83 0.428c0.09 0 0.061 0.098-0.053 0.183-0.119 0.088-0.31 0.449-0.558 1.05-0.089 0.216-0.248 0.556-0.355 0.755-0.107 0.2-0.194 0.395-0.194 0.432 0 0.064 0.427 0.5 0.913 0.93 0.293 0.26 0.29 0.32-0.022 0.527-0.323 0.214-0.722 0.567-0.789 0.698-0.084 0.163 0.139 2.986 0.29 3.67 0.018 0.086 0.072 0.491 0.118 0.9 0.046 0.41 0.118 1 0.16 1.313 0.108 0.807 0.168 1.47 0.14 1.543-0.034 0.089-0.1 0.077-0.143-0.026-0.02-0.048-0.062-0.326-0.094-0.617-0.097-0.876-0.337-2.73-0.418-3.238-0.071-0.448-0.213-1.782-0.312-2.935-0.058-0.682 0.106-0.971 0.806-1.414 0.207-0.13 0.217-0.203 0.046-0.346-1-0.838-1.035-0.918-0.662-1.557a7.92 7.92 0 0 0 0.396-0.791c0.271-0.655 0.559-1.077 0.732-1.077zm-5.928 19.405c0.135 4e-3 0.186 0.047 0.186 0.142 0 0.161-0.489 0.24-0.656 0.106-0.128-0.103 8e-3 -0.209 0.306-0.24 0.065-7e-3 0.12-0.01 0.164-8e-3zm-0.422 1.036c0.123-9e-3 0.317 0.013 0.362 0.05 0.21 0.176-0.154 0.371-0.423 0.227-0.083-0.045-0.103-0.212-0.029-0.258a0.229 0.229 0 0 1 0.09-0.019z" fill="#24acf2"/>
  <path d="m57.969 67.456c0.195-0.038 0.248-0.09 0.306-0.298 0.082-0.294-0.03-1.335-0.182-1.7-0.217-0.52-1.448-0.99-3.383-1.294l-0.89-0.14c-0.132-0.021-0.154-0.06-0.177-0.311-0.011-0.13-0.18-0.12 2.993-0.206 1.525-0.04 1.472 0.017 1.6-1.752 0.05-0.679 0.036-1.783-0.042-3.307-0.02-0.4-0.063-1.37-0.095-2.157-0.084-2.078-0.308-4.298-0.53-5.268-0.05-0.212-0.049-0.216 0.033-0.216 0.501 0 1.421 1.027 2.05 2.288 0.087 0.174 0.27 0.52 0.407 0.767 0.138 0.248 0.328 0.662 0.423 0.92 0.095 0.26 0.265 0.691 0.378 0.96 0.113 0.27 0.298 0.763 0.412 1.097s0.29 0.801 0.39 1.038 0.27 0.686 0.377 0.999c0.107 0.312 0.327 0.838 0.488 1.167 0.357 0.731 0.367 0.739 0.917 0.672 0.4-0.049 0.416-0.044 0.451 0.13a31.2 31.2 0 0 0 0.429 1.745c0.143 0.496 0.214 2.271 0.103 2.564-0.055 0.145 0.028 0.271 0.216 0.326 0.62 0.179 2.614 0.301 3.991 0.245a34.99 34.99 0 0 1 2.115-0.016c0.582 0.015 1.1 0.028 1.154 0.028 0.167 0 0.198-0.097 0.198-0.633 0-1.446-0.318-1.688-2.899-2.213a38.8 38.8 0 0 1-0.748-0.157c-0.102-0.025-0.102-0.024-0.084 0.167 0.035 0.36-0.187 0.686-0.34 0.501-0.046-0.055 4e-3 -0.277 0.128-0.57 0.066-0.156 0.058-0.166-0.197-0.238-0.243-0.068-0.243-0.068-0.225 0.114 0.04 0.4-0.234 0.778-0.373 0.518-0.057-0.105 0.05-0.535 0.162-0.656 0.089-0.095 0.023-0.127-0.39-0.192-0.204-0.032-0.2-0.026-0.308-0.486-0.048-0.205-0.168-0.61-0.267-0.901-0.21-0.614-0.21-0.668-0.021-0.714 0.68-0.167 0.67-0.148 0.486-0.9a24.946 24.946 0 0 1-0.272-1.324 17.17 17.17 0 0 0-0.235-1.136 48.335 48.335 0 0 1-0.311-1.292 23.996 23.996 0 0 0-0.39-1.489 46.38 46.38 0 0 1-0.32-1.057c-0.476-1.674-1.383-3.763-2.377-5.478-1.068-1.842-1.897-2.34-4.356-2.611-1.537-0.17-1.528-0.167-1.528-0.452 0-0.187 0.024-0.302 0.088-0.43 0.18-0.357 0.454-1.181 0.74-2.229 0.16-0.593 0.373-1.343 0.472-1.666 0.098-0.324 0.29-1.029 0.428-1.567 0.138-0.539 0.328-1.244 0.422-1.567 0.206-0.707 0.245-0.95 0.171-1.051-0.065-0.09-0.822-0.158-2.439-0.22a74.732 74.732 0 0 1-1.625-0.08c-1.193-0.082-2.647-0.116-4.915-0.119-1.338-1e-3 -2.595-0.02-2.918-0.046-0.942-0.072-0.916-0.074-0.948 0.086l-0.17 0.862c-0.077 0.399-0.21 0.98-0.294 1.293-0.125 0.468-0.468 1.936-0.468 2.007 0 0.011-0.101 0.028-0.225 0.037-0.283 0.021-0.478 0.114-0.693 0.33-0.533 0.532-0.596 2.046-0.068 1.6 0.118-0.098 0.118-0.098 0.163 0.04 0.048 0.146 0.132 0.175 0.277 0.097 0.101-0.054 0.1-0.048-0.057 0.67-0.073 0.332-0.172 0.82-0.22 1.085-0.12 0.669 0.142 0.618-2.29 0.442a145.73 145.73 0 0 0-4.07-0.236c-0.516-0.022-0.948-0.05-0.96-0.063-0.033-0.033 0.162-0.184 0.485-0.377 0.336-0.2 0.881-0.588 0.978-0.696 0.245-0.27 0.428-0.036 0.452 0.574 0.016 0.411 0.03 0.502 0.079 0.502s0.058-0.08 0.058-0.49c0-0.49 0-0.49 0.216-0.517l0.289-0.039c0.058-0.01 0.093 0.042 0.17 0.243 0.186 0.494 0.365 0.521 0.623 0.093 0.043-0.07 0.05-0.068 0.16 0.034 0.23 0.218 0.486 0.065 0.54-0.321 0.032-0.238 0.07-0.247 0.176-0.042 0.43 0.843 0.869 0.329 0.557-0.653-0.093-0.293-0.08-0.317 0.105-0.175 0.704 0.546 1.137 0.266 0.667-0.43-0.704-1.041-1.784-1.77-2.843-1.917-0.385-0.054-0.38-0.05-0.35-0.268a29.99 29.99 0 0 0 0.279-3.685c0.011-0.549 0.038-1.271 0.058-1.605 0.064-1.052 0.13-6.782 0.08-6.967-0.079-0.29-0.166-0.212-0.138 0.122 0.048 0.55-0.023 5.438-0.098 6.806-0.022 0.398-0.04 1.12-0.04 1.606 0 1.354-0.137 2.766-0.374 3.864-0.015 0.072-0.054 0.09-0.243 0.11-0.41 0.047-1.12 0.178-1.498 0.278-0.205 0.054-0.69 0.17-1.077 0.256-1.939 0.431-3.856 0.969-4.022 1.128-0.057 0.054-0.089 0.197-0.076 0.344 3e-3 0.03 0.092 6e-3 0.25-0.067 0.311-0.145 1.404-0.456 2.927-0.833l1.704-0.422c1.87-0.463 2.462-0.493 3.349-0.172 0.573 0.208 0.95 0.479 1.456 1.047 0.768 0.862 0.625 1.034-0.227 0.274-0.591-0.528-0.697-0.483-0.375 0.159 0.273 0.545 0.436 1.189 0.319 1.261-0.063 0.039-0.142-0.068-0.405-0.551-0.329-0.602-0.523-0.704-0.424-0.224 0.091 0.443 0.046 0.91-0.088 0.91-0.068 0-0.148-0.143-0.297-0.528-0.17-0.437-0.257-0.394-0.24 0.118 0.022 0.651-0.122 0.712-0.308 0.132-0.105-0.326-0.136-0.346-0.332-0.213-0.236 0.16-0.515 0.121-0.789-0.11-0.16-0.135-0.219-0.13-0.34 0.03-0.11 0.142-0.566 0.48-1.044 0.77-0.162 0.098-0.394 0.243-0.516 0.322-0.273 0.177-1.092 0.587-1.306 0.654-0.086 0.027-0.324 0.117-0.528 0.199-0.579 0.233-1.63 0.6-1.998 0.7-1.168 0.314-1.136 0.3-1.136 0.482 0 0.102 0.012 0.115 0.088 0.096 1.31-0.32 2.239-0.61 3.143-0.978 0.237-0.096 0.502-0.198 0.588-0.225a6.07 6.07 0 0 0 0.577-0.259c0.54-0.27 0.504-0.286 0.475 0.211-0.031 0.54 0.05 0.5-0.923 0.45-0.878-0.045-0.933-0.038-0.931 0.123 1e-3 0.199 8e-3 0.2 1.026 0.21 4.16 0.04 6.08 0.152 8.217 0.48 1.04 0.161 2.692 0.188 4.804 0.08 0.716-0.038 0.804-0.026 1.306 0.177 0.24 0.097 0.727 0.387 0.93 0.553 0.646 0.527 1.497 2.552 1.776 4.223 0.043 0.259 0.13 0.743 0.194 1.077 0.063 0.334 0.15 0.837 0.192 1.117 0.343 2.284 0.627 8.698 0.39 8.786-0.217 0.08-1.133 0.142-1.896 0.127-1.174-0.024-1.755-0.024-2.233-3e-3 -0.502 0.023-0.44 0.11-0.639-0.9a20.18 20.18 0 0 0-0.281-1.195c-0.089-0.323-0.232-0.94-0.317-1.371a23.174 23.174 0 0 0-0.29-1.273 17.488 17.488 0 0 1-0.432-1.92 26.985 26.985 0 0 0-0.35-1.605 87.248 87.248 0 0 1-0.335-1.387c-0.279-1.246-0.77-1.631-2.369-1.861-1.835-0.264-3.666-0.359-7.082-0.367-3.047-8e-3 -3.047-8e-3 -3.02 0.718 0.04 1.091 0.03 1.1-0.892 0.864-0.33-0.085-0.714-0.174-0.854-0.199s-0.687-0.15-1.214-0.28a27.188 27.188 0 0 0-1.532-0.33c-1.177-0.196-1.324-0.329-1.413-1.28-0.057-0.607-0.056-0.607-0.263-0.545-0.122 0.037-0.336 0.038-0.933 5e-3 -1.525-0.084-2.689-0.034-2.948 0.127-0.202 0.125-0.339 1.922-0.43 5.651a98.182 98.182 0 0 1-0.16 3.886c-0.083 1.403-0.07 3.238 0.024 3.364 0.174 0.235 0.632 0.34 1.682 0.387 0.61 0.027 2.117 0.119 2.898 0.177 0.512 0.039 2.01 0.105 4.798 0.215 1.74 0.068 2.142 0.098 3.427 0.255 0.517 0.063 1.284 0.142 1.704 0.174 0.42 0.033 1.059 0.086 1.42 0.118 0.36 0.032 1.277 0.067 2.036 0.078 3.569 0.053 6.275 0.154 7.04 0.264 0.162 0.024 0.532 0.053 0.821 0.067 0.527 0.024 0.527 0.024 0.62 0.415 0.091 0.392 0.091 0.392 0.01 0.92-0.166 1.061-0.186 1.41-0.085 1.492 0.097 0.079 0.092 0.078 1.514 0.327 0.56 0.098 1.247 0.221 1.527 0.274 0.56 0.105 0.993 0.16 2.617 0.336 1.135 0.123 1.208 0.127 1.445 0.08zm-1.313-0.375c-1.717-0.214-2.31-0.305-3.062-0.47-0.431-0.094-1.1-0.228-1.489-0.296-0.745-0.131-0.88-0.167-0.88-0.231 0-0.062 0.18-0.049 0.728 0.054 0.278 0.052 0.998 0.16 1.602 0.239 0.603 0.079 1.36 0.188 1.684 0.242 0.846 0.142 0.86 0.144 0.91 0.083 0.025-0.03 0.065-0.21 0.088-0.402 0.07-0.562 0.236-1.275 0.318-1.369 0.065-0.073 1.073 0.35 1.216 0.51 0.186 0.209 0.362 1.551 0.221 1.691-0.072 0.072-0.465 0.057-1.336-0.051zm9.329-1.742c-1.23-0.139-1.215-0.135-1.201-0.347s0.143-0.225 1.265-0.131c1.479 0.124 4.133 0.09 4.253-0.056 0.023-0.027 0.066-0.308 0.094-0.624 0.064-0.707 0.041-0.683 0.504-0.529 0.716 0.239 0.925 0.556 0.926 1.405 0 0.375 0.083 0.352-1.203 0.333-0.62-9e-3 -1.453 0-1.852 0.022-0.938 0.05-1.935 0.023-2.786-0.073zm-10.607-0.31c-0.081-0.152 0.071-0.63 0.2-0.63 0.174 0 0.215 0.266 0.089 0.577-0.06 0.15-0.222 0.178-0.29 0.052zm-0.551-0.103c-0.067-0.08 0.056-0.552 0.16-0.607 0.17-0.092 0.273 0.088 0.192 0.342-0.096 0.305-0.234 0.408-0.352 0.265zm-0.524-0.108c-0.068-0.11 0.161-0.513 0.302-0.53 0.196-0.023 0.19 0.177-0.013 0.458-0.126 0.174-0.213 0.195-0.289 0.072zm-0.45-0.138c-0.05-0.094 0.034-0.437 0.121-0.492 0.11-0.069 0.2 0.043 0.176 0.22-0.038 0.279-0.21 0.436-0.298 0.272zm-2.213-0.397a0.553 0.553 0 0 1-0.19-0.074c-0.078-0.078-0.5-1.838-0.5-2.085 0-0.088 0.197-0.095 1.347-0.05 0.541 0.022 0.66 0.037 0.687 0.088 0.083 0.162 0.326 1.93 0.272 1.984-0.142 0.142-1.207 0.232-1.616 0.137zm17.72-0.626c-0.108-0.201-0.018-0.546 0.127-0.49 0.159 0.06 0.131 0.566-0.03 0.566-0.031 0-0.074-0.034-0.097-0.076zm-0.705-0.32c0.057-0.31 0.085-0.368 0.18-0.368 0.142 0 0.119 0.503-0.03 0.652-0.144 0.144-0.207 0.025-0.15-0.284zm-15.081-0.177c-0.059-0.058-0.249-1.035-0.21-1.073 0.019-0.018 0.298-0.052 0.621-0.076a8.93 8.93 0 0 0 0.652-0.063c0.16-0.048 0.171-0.19 0.168-2.034-3e-3 -1.784-0.025-2.318-0.178-4.236-0.047-0.584-0.076-1.088-0.064-1.12 0.017-0.043 0.17-0.067 0.662-0.102 0.63-0.045 2.017-0.131 2.245-0.14 0.154-4e-3 0.16 0.03 0.214 1.426 0.04 1.01 0.086 1.95 0.2 4.015 0.062 1.138 0.037 2.019-0.082 2.918-0.064 0.48 0.06 0.446-1.686 0.476-0.82 0.014-1.502 0.038-1.516 0.053-0.041 0.042-0.98 2e-3 -1.026-0.044zm3.045-6.644c0.131-0.167 0.178-0.5 0.07-0.5-0.057 0-0.229 0.458-0.194 0.515 0.03 0.048 0.08 0.042 0.124-0.015zm-7.177 6.61c-0.703-0.094-5.908-0.294-7.679-0.294-0.723 0-3.145-0.182-4.189-0.314-1.348-0.171-1.743-0.198-4.641-0.31-2.803-0.11-3.528-0.143-5.111-0.239-0.345-0.02-1.013-0.056-1.484-0.079-1.516-0.072-1.571-0.096-1.536-0.664 0.013-0.205 0.05-0.954 0.083-1.665 0.033-0.71 0.077-1.513 0.098-1.782 0.021-0.27 0.05-1.279 0.064-2.244s0.04-1.762 0.055-1.772c0.016-0.01 0.227 0.043 0.467 0.119 0.493 0.155 1.036 0.227 2.196 0.293 0.397 0.023 1.128 0.067 1.623 0.098 0.496 0.03 1.439 0.075 2.096 0.099 0.657 0.023 2.076 0.077 3.153 0.119 2.974 0.116 7.887 0.087 10.3-0.061 0.518-0.032 1.31-0.077 1.763-0.101s0.83-0.05 0.838-0.058c0.116-0.11 0.175 0.084 0.355 1.158 0.063 0.377 0.212 1.038 0.33 1.469 0.118 0.43 0.277 1.065 0.352 1.41 0.141 0.644 0.293 1.228 0.5 1.917 0.064 0.217 0.176 0.67 0.25 1.008 0.188 0.876 0.192 0.88 0.846 0.844 0.229-0.012 0.397-6e-3 0.41 0.016 0.064 0.103 0.173 1.067 0.125 1.1-0.062 0.044-0.694 0.01-1.264-0.066zm-19.258-3.086c0.095-0.114-0.019-0.89-0.13-0.89-0.09 0-0.098 0.055-0.06 0.452 0.037 0.4 0.1 0.545 0.19 0.438zm-3.544-0.955c0.042-0.042 0.03-0.359-0.015-0.386-0.063-0.04-0.155 0.058-0.155 0.165 0 0.167 0.097 0.293 0.17 0.22zm17.79-2.256c0.062-0.16-1e-3 -0.754-0.08-0.754-0.112 0-0.122 0.774-0.01 0.796 0.038 7e-3 0.079-0.012 0.09-0.042zm-12.103-1.01c0.067-0.11 0.07-0.936 3e-3 -0.962-0.093-0.035-0.09-0.05-0.12 0.504-0.027 0.49 0.01 0.632 0.117 0.458zm4.825-0.317c-0.026-0.369-0.052-0.465-0.128-0.465-0.128 0-0.052 0.753 0.078 0.778 0.068 0.013 0.072-8e-3 0.05-0.313zm27.661 7.304c-0.097-0.097-0.629-2.098-0.572-2.155 0.025-0.025 1.476-0.244 1.639-0.246 0.049-1e-3 0.096 0.098 0.188 0.4 0.068 0.22 0.173 0.533 0.233 0.695 0.134 0.357 0.254 0.842 0.226 0.914-0.106 0.277-1.508 0.598-1.714 0.392zm-2.044-3.01c-0.15-0.323-0.34-0.79-0.42-1.038-0.081-0.247-0.237-0.662-0.346-0.92-0.109-0.259-0.286-0.734-0.392-1.058-0.107-0.323-0.3-0.843-0.429-1.155a30.236 30.236 0 0 1-0.362-0.92c-0.28-0.769-1.037-2.175-1.714-3.185-0.192-0.286-0.76-0.81-1.004-0.924-0.508-0.239-2.339-0.55-3.96-0.676-0.333-0.025-0.333-0.025-0.374-0.186-0.075-0.29-0.12-0.426-0.419-1.257-0.54-1.503-0.992-2.176-1.766-2.626-0.38-0.22-0.386-0.236-0.094-0.27 0.123-0.014 0.472-0.06 0.773-0.101a19.73 19.73 0 0 1 1.214-0.115c0.922-0.056 1.867-0.14 2.72-0.244 0.72-0.088 0.72-0.088 1.33 3e-3 0.337 0.05 0.874 0.123 1.196 0.163 1.469 0.184 2.405 0.476 2.94 0.917 0.844 0.694 2.046 2.934 3.155 5.876 0.04 0.108 0.162 0.513 0.27 0.901 0.109 0.388 0.275 0.952 0.37 1.253 0.096 0.302 0.265 0.954 0.376 1.45 0.11 0.495 0.253 1.094 0.316 1.331 0.062 0.237 0.176 0.793 0.253 1.234 0.076 0.442 0.182 0.968 0.236 1.169 0.053 0.201 0.097 0.382 0.097 0.402 0 0.096-0.597 0.225-1.783 0.386-2.059 0.278-1.843 0.318-2.183-0.41zm-23.118-6.206c-0.05-0.08 0.063-0.106 1.182-0.272 0.112-0.017 0.223-0.019 0.247-4e-3 0.09 0.055-0.067 0.11-0.49 0.174a9.67 9.67 0 0 0-0.568 0.098c-0.19 0.046-0.343 0.048-0.37 4e-3zm1.959-0.872c-0.108-0.364-0.055-0.479 0.194-0.42 0.115 0.027 0.115 0.028-0.03 0.032-0.194 6e-3 -0.214 0.07-0.111 0.353 0.093 0.256 0.1 0.293 0.044 0.26-0.02-0.013-0.065-0.115-0.097-0.225zm-9.69 0.053c-0.322-0.341-0.448-0.518-0.401-0.565 0.065-0.065 0.684 0.555 0.648 0.65-0.039 0.1-0.09 0.082-0.247-0.085zm24.097-0.926c-0.036-0.094 0.045-0.158 0.3-0.235 0.401-0.121 0.448 0.07 0.05 0.208-0.28 0.098-0.322 0.101-0.35 0.027zm-27.191-0.538a2.566 2.566 0 0 0-0.297-0.342c-0.228-0.224-0.269-0.314-0.143-0.314 0.125 0 0.66 0.662 0.607 0.75-0.038 0.061-0.087 0.034-0.167-0.094zm16.503-6.766c0-0.081 1.062-0.111 3.839-0.108 3.137 3e-3 4.142-7e-3 4.644-0.049 1.736-0.143 2.935-0.132 2.935 0.025 0 0.048-0.026 0.053-0.127 0.027-0.183-0.047-1.847-0.03-2.38 0.024-0.77 0.078-2.47 0.118-3.094 0.073-0.578-0.042-3.938-0.011-5.014 0.046-0.715 0.037-0.803 0.033-0.803-0.038zm-0.176-3.151c0-0.243-0.062-0.258-0.244-0.06-0.181 0.195-0.234 0.165-0.202-0.118 0.076-0.66 0.432-1.137 0.851-1.137 0.16 0 0.165 0.075 0.048 0.631-0.156 0.737-0.163 0.758-0.286 0.807-0.164 0.065-0.167 0.063-0.167-0.123zm7.632-1.671c-0.183-0.118-0.24-0.192-0.144-0.192 0.064 0 0.424 0.236 0.424 0.278 0 0.064-0.089 0.037-0.28-0.086zm-5.705-3.349c-0.015-0.152 0.085-0.254 0.143-0.145 0.02 0.04 0.029 0.12 0.017 0.18-0.029 0.152-0.144 0.126-0.16-0.035zm-32.047 14.868c0.043-0.043 0.079-0.111 0.079-0.151a0.362 0.362 0 0 0-0.079-0.173 0.534 0.534 0 0 1-0.078-0.118c0-0.025 0.293 0.077 0.438 0.152 0.571 0.295 0.607-0.277 0.136-2.171-0.185-0.746-0.189-0.703 0.106-1.348 0.156-0.343 0.182-0.294 0.182 0.353 0 0.687 0.069 2.3 0.116 2.705 0.051 0.441 0.182 0.528 0.518 0.347 0.191-0.103 2.659-2.58 2.915-2.925 0.89-1.202 0.89-1.201 1.473-2.233 0.447-0.788 0.481-0.861 1.004-2.134 0.866-2.112 1.067-4.367 0.495-5.577-0.416-0.88-0.692-1.257-1.147-1.566-0.134-0.09-0.243-0.175-0.243-0.187s0.063-0.333 0.14-0.713c0.508-2.518 0.452-4.837-0.154-6.337-0.784-1.941-1.88-2.685-3.102-2.107-1.105 0.522-1.984 2.659-2.368 5.755-0.162 1.306-0.178 1.312-0.276 0.117-0.022-0.28-0.066-0.69-0.097-0.913-0.048-0.346-0.049-0.416-2e-3 -0.49 0.07-0.107 0.233-0.846 0.318-1.436 0.064-0.45 0.064-0.45 0.29-0.687 0.584-0.608 0.78-1.663 0.31-1.663-0.367 0-1.059 1.506-0.792 1.727 0.1 0.084-0.073 1.585-0.198 1.71-0.04 0.04-0.05 5e-3 -0.295-1.015-0.24-1.004-0.24-1.004-0.163-1.507 0.042-0.277 0.107-0.746 0.143-1.041 0.064-0.516 0.071-0.543 0.195-0.67 0.611-0.63 0.739-2.262 0.145-1.846-0.226 0.158-0.479 1.193-0.479 1.958 0 0.247-0.097 1.278-0.14 1.477-0.04 0.19-0.085 0.088-0.446-1.01-0.353-1.076-0.353-1.076-0.217-1.575 0.168-0.62 0.276-0.927 0.371-1.062 0.126-0.177 0.354-1.282 0.354-1.713 0-0.528-0.5-0.499-0.728 0.043-0.133 0.316-0.112 1.105 0.045 1.704 0.058 0.222-0.134 1.166-0.245 1.203-0.04 0.014-0.593-1.241-0.681-1.546-0.04-0.136-0.038-0.22 7e-3 -0.45 0.21-1.086-0.208-2.316-0.607-1.78-0.107 0.144-0.103 0.568 0.012 1.074 0.116 0.511 0.095 0.534-0.145 0.157a11.062 11.062 0 0 0-0.37-0.534c-0.201-0.27-0.216-0.307-0.239-0.568-0.084-0.977-0.55-1.861-0.87-1.651-0.192 0.125-0.167 0.357 0.104 0.973 0.088 0.198 0.204 0.466 0.258 0.595 0.114 0.272 0.192 0.372 0.29 0.372 0.122 0 1.132 1.372 1.132 1.537 0 0.126 0.27 0.91 0.507 1.471 0.236 0.557 0.685 1.898 0.66 1.971-0.04 0.123-1.362-1.111-1.362-1.271 0-0.451-0.896-1.75-1.207-1.75-0.43 0-0.318 0.522 0.288 1.333 0.453 0.607 0.563 0.71 0.743 0.698 0.144-0.01 0.341 0.129 0.614 0.432 0.093 0.103 0.318 0.303 0.502 0.445 0.63 0.488 0.71 0.65 1.06 2.115 0.102 0.431 0.093 0.467-0.089 0.341-0.694-0.478-0.771-0.551-0.856-0.805-0.188-0.567-0.927-1.386-1.25-1.386-0.194 0-0.245 0.305-0.09 0.536 0.56 0.831 0.912 1.188 1.174 1.188 0.12 0 1.004 0.572 1.199 0.775 0.176 0.184 0.613 2.179 0.502 2.29-0.06 0.06-0.859-0.852-0.907-1.036-0.234-0.886-1.097-1.83-1.371-1.5-0.128 0.155-0.047 0.357 0.345 0.864 0.15 0.194 0.3 0.407 0.336 0.476 0.074 0.144 0.208 0.248 0.28 0.22 0.068-0.026 1.212 1.092 1.33 1.299 0.138 0.24 0.348 2.385 0.237 2.417-0.02 6e-3 -0.156-0.275-0.3-0.624-1.556-3.782-4.008-5.811-5.934-4.91-0.422 0.197-0.763 0.661-1.053 1.433-0.55 1.46-0.254 3.515 0.94 6.54 0.187 0.474 0.35 0.906 0.362 0.96a0.436 0.436 0 0 0 0.07 0.157c0.052 0.061 0.215 0.373 0.215 0.41 0 0.05-0.095 0.01-0.304-0.132-0.729-0.493-2.147-0.736-2.724-0.465-0.805 0.377-1.217 1.305-1.028 2.316 0.277 1.475 1.244 2.82 3.297 4.583a516.1 516.1 0 0 0 1.988 1.703c0.238 0.202 0.865 0.757 1.706 1.513 0.336 0.3 1.018 0.95 1.516 1.444 1.094 1.082 1.037 1.04 1.19 0.887zm-0.916-1.243c-0.411-0.404-0.99-0.953-1.287-1.22-0.607-0.545-0.624-0.572-0.333-0.536 0.764 0.095 1.003 0.215 1.294 0.65 0.11 0.16 0.326 0.456 0.483 0.656 0.353 0.449 0.736 1.184 0.617 1.184-0.014 0-0.362-0.33-0.774-0.734zm1.21 0.482c-0.094-0.071-0.165-0.198-0.292-0.519a12.434 12.434 0 0 0-0.359-0.804c-0.18-0.36-0.74-1.586-0.74-1.62 0-0.04 0.119-8e-3 0.46 0.125 0.557 0.216 0.594 0.25 0.703 0.642 0.262 0.938 0.482 2.076 0.429 2.215-0.03 0.077-0.056 0.072-0.2-0.039zm0.945-0.247c-0.041-0.193-0.073-3.156-0.035-3.32 0.043-0.183 0.174-0.08 0.49 0.386 0.09 0.132 0.265 0.35 0.39 0.484 0.125 0.135 0.227 0.264 0.227 0.288 0 0.074-0.2 0.55-0.395 0.942a15.1 15.1 0 0 0-0.342 0.744c-0.21 0.5-0.25 0.583-0.283 0.583-0.015 0-0.039-0.048-0.052-0.107zm0.798-0.656c0-0.01 0.113-0.27 0.25-0.577 0.138-0.308 0.274-0.637 0.302-0.731 0.06-0.2 0.08-0.21 0.732-0.398 0.5-0.142 0.534-0.136 0.38 0.064-0.273 0.359-1.664 1.731-1.664 1.642zm-3.181-0.815c-0.286-0.403-0.382-0.644-0.383-0.958 0-0.25 0.05-0.204 0.234 0.216 0.093 0.21 0.254 0.553 0.359 0.763 0.307 0.615 0.236 0.608-0.21-0.021zm-1.305-0.69c-0.707-0.148-0.725-0.156-1.068-0.465-0.16-0.145-0.445-0.395-0.634-0.557-1.055-0.902-1.054-0.9-0.908-0.9 0.198 0 1.573 0.275 1.887 0.377 0.26 0.085 1.514 1.66 1.32 1.66-0.028 0-0.297-0.052-0.597-0.115zm0.534-0.349a11.43 11.43 0 0 0-0.504-0.644c-0.352-0.422-0.352-0.422-0.417-0.862a17.658 17.658 0 0 0-0.104-0.63c-0.049-0.248-0.095-1.004-0.061-1.004 0.014 0 0.11 0.18 0.215 0.401 0.103 0.221 0.258 0.525 0.343 0.676 0.491 0.87 0.76 1.63 0.76 2.154 0 0.218-0.029 0.207-0.232-0.09zm4.657 0.074c0-0.074 0.335-1.084 0.518-1.561 0.125-0.326 1.041-1.03 1.762-1.355 0.114-0.05 0.357-0.193 0.54-0.316 0.378-0.254 0.422-0.236 0.252 0.103-0.299 0.596-1.028 1.827-1.307 2.206-0.512 0.697-0.416 0.625-1.1 0.82-0.719 0.205-0.665 0.197-0.665 0.103zm-0.564-0.16a4.152 4.152 0 0 1-0.324-0.441c-0.099-0.156-0.263-0.38-0.365-0.498-0.275-0.321-0.27-0.302-0.233-0.96 0.018-0.323 0.053-1.01 0.076-1.527 0.065-1.404 0.043-1.359 0.395-0.813 0.135 0.21 0.36 0.54 0.498 0.734s0.296 0.44 0.35 0.549c0.055 0.107 0.203 0.365 0.33 0.573 0.27 0.445 0.268 0.426 0.09 0.876a58.703 58.703 0 0 0-0.586 1.615c-0.028 0.082-0.082 0.057-0.231-0.109zm-1.938 0.088c-0.02-0.038-0.108-0.412-0.195-0.832s-0.185-0.85-0.218-0.957c-0.082-0.272 0.353-1.505 0.863-2.44 0.285-0.524 0.28-0.555 0.191 1.263a49.348 49.348 0 0 0-0.057 1.567c0 0.391 0 0.391-0.263 0.93-0.29 0.595-0.27 0.565-0.32 0.47zm-0.857-0.222c-0.677-0.27-0.648-0.248-0.85-0.67a4.413 4.413 0 0 1-0.177-0.402c0-0.015-0.18-0.384-0.4-0.82-0.219-0.435-0.387-0.803-0.373-0.817 0.047-0.048 1.63 0.708 1.758 0.838 0.097 0.099 0.542 1.754 0.542 2.014 0 0.051-0.046 0.038-0.5-0.143zm-2.663-1.48c-0.892-1.102-0.845-0.986-0.837-2.097 7e-3 -1.016 0.027-1.34 0.084-1.34 0.016 0 0.14 0.224 0.272 0.499 0.134 0.274 0.318 0.631 0.411 0.793 0.165 0.286 0.17 0.305 0.195 0.744 0.015 0.248 0.06 0.704 0.103 1.014 0.11 0.814 0.113 0.807-0.228 0.386zm-0.809 0.123c-0.32-0.063-0.75-0.14-0.953-0.173a2.417 2.417 0 0 1-0.473-0.114c-0.204-0.106-1.518-1.268-1.478-1.307 0.04-0.04 1.51 0.08 1.591 0.13 0.014 9e-3 0.242 0.043 0.507 0.075 0.265 0.033 0.49 0.069 0.5 0.08 0.083 0.081 1.104 1.418 1.105 1.444 0 0.018-0.048 0.021-0.107 6e-3 -0.06-0.015-0.37-0.079-0.692-0.141zm7.616-0.594c0.01-0.301 0.5-1.74 0.619-1.81 0.071-0.044 0.221-0.155 0.332-0.246 0.112-0.091 0.335-0.267 0.497-0.39 0.161-0.125 0.39-0.31 0.509-0.415 0.118-0.104 0.357-0.282 0.53-0.396 0.172-0.114 0.427-0.307 0.567-0.429 0.25-0.218 0.352-0.268 0.352-0.172 0 0.145-0.22 0.83-0.443 1.38-0.44 1.089-0.423 1.06-0.66 1.178a2.719 2.719 0 0 0-0.336 0.2c-0.07 0.052-0.32 0.19-0.555 0.307a7.601 7.601 0 0 0-1.174 0.71c-0.185 0.141-0.24 0.16-0.238 0.083zm-3.95-0.424c-0.294-0.928-0.434-1.71-0.36-2.006 0.295-1.167 0.412-1.57 0.57-1.956 0.1-0.243 0.265-0.68 0.368-0.97 0.26-0.74 0.434-1.142 0.486-1.125 0.095 0.032 0.302 2.136 0.313 3.182 6e-3 0.55 6e-3 0.55-0.411 1.39-0.23 0.463-0.502 1.058-0.607 1.322-0.216 0.55-0.234 0.558-0.36 0.163zm3.36-0.203c-0.367-0.65-0.392-0.691-0.617-1.01-0.961-1.362-0.94-1.297-0.79-2.454 0.161-1.24 0.173-1.265 0.391-0.87 0.076 0.138 0.263 0.436 0.416 0.662 0.152 0.227 0.326 0.5 0.387 0.608 0.06 0.107 0.228 0.363 0.372 0.567 0.263 0.372 0.633 1.003 0.68 1.161 0.017 0.053-0.069 0.392-0.23 0.914-0.14 0.457-0.256 0.838-0.256 0.847 0 0.114-0.152-0.07-0.352-0.425zm-4.64-0.025c-0.901-0.464-0.901-0.464-1.146-0.91a61.813 61.813 0 0 1-0.943-1.845c-0.037-0.083 0.151 2e-3 0.713 0.323 0.34 0.195 0.724 0.408 0.856 0.474 0.96 0.485 1.02 0.556 1.258 1.495 0.236 0.928 0.237 0.93 0.192 0.928-0.016-1e-3 -0.435-0.21-0.93-0.465zm-3.147-0.897c-0.468-0.597-0.468-0.597-0.493-1.292a67.34 67.34 0 0 0-0.088-1.628c-0.082-1.247-0.056-1.274 0.408-0.427 0.845 1.542 0.833 1.5 0.809 2.742-0.03 1.497 0.023 1.446-0.636 0.605zm-0.496 0.502a28.217 28.217 0 0 0-0.999-0.138c-1.042-0.123-1.02-0.117-1.242-0.346-0.482-0.5-1.181-1.457-1.113-1.526 0.022-0.021 0.307 0.03 0.716 0.13 2.244 0.543 2.32 0.578 2.898 1.314 0.245 0.311 0.45 0.583 0.458 0.604 0.02 0.058-0.197 0.047-0.718-0.038zm9.499-1.069c0-0.027 0.06-0.234 0.132-0.46s0.25-0.887 0.397-1.469c0.3-1.189 0.27-1.123 0.564-1.272 0.12-0.06 0.31-0.172 0.422-0.248a2.31 2.31 0 0 1 0.47-0.225 9.66 9.66 0 0 0 0.578-0.22c0.484-0.202 0.469-0.225 0.415 0.617-0.083 1.292-0.037 1.214-1.118 1.94a8.255 8.255 0 0 0-0.627 0.465c-0.13 0.11-0.321 0.26-0.427 0.332a5.14 5.14 0 0 0-0.444 0.36c-0.246 0.222-0.364 0.28-0.362 0.18zm-0.414-0.307a9.123 9.123 0 0 0-0.424-0.676c-0.178-0.262-0.4-0.608-0.493-0.77a9.948 9.948 0 0 0-0.377-0.59c-0.466-0.666-0.647-1.138-0.56-1.455 0.288-1.036 0.673-1.95 0.822-1.95 0.02 0 0.119 0.11 0.221 0.243 0.102 0.134 0.302 0.376 0.444 0.539 0.142 0.162 0.351 0.427 0.465 0.59 0.115 0.16 0.282 0.38 0.373 0.489 0.548 0.653 0.606 0.807 0.475 1.253-0.05 0.172-0.183 0.63-0.294 1.018-0.187 0.654-0.423 1.41-0.462 1.479-0.038 0.068-0.095 0.017-0.19-0.17zm-5.423-0.069c-1.08-0.625-1.632-0.934-1.951-1.089-0.365-0.178-0.365-0.178-0.63-0.713a101.26 101.26 0 0 0-0.604-1.193c-0.46-0.892-0.459-0.894 0.208-0.57 0.227 0.11 0.658 0.292 0.96 0.406 0.83 0.313 1.093 0.428 1.388 0.603 0.303 0.18 0.282 0.14 0.507 0.964 0.064 0.237 0.206 0.71 0.315 1.053 0.27 0.846 0.281 0.814-0.193 0.54zm-4.362-0.603c-0.248-0.329-0.538-0.7-0.644-0.825-0.24-0.281-0.281-0.526-0.281-1.627 0-0.833-0.015-0.808 0.395-0.676 0.238 0.077 0.928 0.483 0.99 0.584 0.034 0.055 0.091 2.74 0.066 3.112-7e-3 0.093-0.123-0.032-0.526-0.568zm-0.141 0.437c-0.2-0.076-1.492-0.417-2.22-0.587-0.533-0.124-0.57-0.166-0.811-0.917-0.171-0.535-0.192-0.528 0.934-0.31l0.913 0.178c0.241 0.046 0.423 0.236 1.11 1.16 0.477 0.64 0.475 0.629 0.074 0.476zm5.017-0.574a41.345 41.345 0 0 1-0.54-1.87c-0.026-0.116 0.33-0.95 0.636-1.489l0.487-0.862c0.252-0.444 0.654-1.018 0.714-1.018 0.04 0 0.22 0.6 0.386 1.29 0.088 0.365 0.088 0.365-0.13 0.869-0.119 0.277-0.282 0.69-0.363 0.916s-0.222 0.587-0.313 0.803a8.376 8.376 0 0 0-0.445 1.331c-0.194 0.815-0.183 0.814-0.432 0.03zm-6.78-1.32c-1.024-0.215-1.344-0.291-1.38-0.327-0.155-0.156 0.244-1.222 0.458-1.222 0.065 0 0.747 0.665 0.945 0.92 0.083 0.108 0.244 0.298 0.357 0.423 0.315 0.347 0.307 0.35-0.38 0.206zm0.564-0.208a21.96 21.96 0 0 1-0.474-0.558 8.957 8.957 0 0 0-0.538-0.586c-0.449-0.443-0.334-0.571 0.506-0.567 0.847 5e-3 0.803-0.052 0.803 1.037 0 0.516-0.014 0.939-0.031 0.939s-0.137-0.12-0.266-0.265zm8.464-1.302c-0.035-0.29-0.084-0.64-0.108-0.776-0.035-0.193-0.035-0.265 3e-3 -0.325 0.054-0.086 0.03-0.152-0.053-0.152-0.03 0-0.072-0.066-0.094-0.147-0.413-1.566-0.43-1.646-0.395-1.757 0.02-0.063 0.047-0.162 0.059-0.221 0.039-0.198 0.22-8e-3 0.626 0.656 0.106 0.172 0.321 0.496 0.479 0.72 0.368 0.523 0.363 0.462 0.108 1.237-0.12 0.366-0.271 0.869-0.336 1.117s-0.129 0.477-0.142 0.51c-0.027 0.065-0.053-0.09-0.147-0.862zm-3.467 0.778c-0.15-0.092-1.102-0.502-1.351-0.582a5.785 5.785 0 0 1-0.548-0.247c-0.216-0.108-0.55-0.261-0.745-0.341-0.422-0.175-0.412-0.16-0.922-1.469-0.644-1.654-0.673-1.793-0.342-1.66 0.114 0.046 0.427 0.167 0.696 0.27 1.177 0.45 2.389 1.109 2.506 1.363 0.074 0.16 0.25 0.672 0.433 1.261 0.09 0.291 0.242 0.737 0.336 0.991 0.215 0.578 0.214 0.583-0.063 0.414zm0.43-0.475c-0.19-0.487-0.708-2.03-0.73-2.168-0.014-0.082 0.01-0.183 0.077-0.313 0.105-0.208 0.186-0.463 0.396-1.256 0.088-0.33 0.235-0.734 0.408-1.117 0.148-0.33 0.318-0.745 0.377-0.923 0.058-0.177 0.127-0.323 0.152-0.323 0.104 0 1.032 2.034 1.282 2.81 0.108 0.335 0.082 0.419-0.265 0.873-0.174 0.227-0.376 0.561-0.996 1.644a7.13 7.13 0 0 0-0.463 0.994c-0.062 0.164-0.106 0.123-0.239-0.22zm7.185-0.359c0.175-0.582 0.299-1.153 0.463-2.134 0.102-0.604 0.107-0.61 0.38-0.393 0.367 0.29 0.885 1.236 1.007 1.84 0.098 0.488 0.14 0.448-0.79 0.766-0.28 0.096-0.597 0.23-0.704 0.298-0.569 0.358-0.574 0.352-0.356-0.377zm-0.53 0.457a8.978 8.978 0 0 0-0.348-0.46 9.035 9.035 0 0 1-0.392-0.529 6.038 6.038 0 0 0-0.413-0.528c-0.335-0.379-0.688-0.88-0.658-0.935 0.477-0.835 1.613-1.287 2.423-0.962 0.23 0.093 0.235 0.098 0.247 0.261 0.027 0.381-0.15 1.345-0.47 2.566-0.227 0.862-0.215 0.844-0.39 0.587zm-2.997-2.507c-0.154-0.231-0.363-0.57-0.466-0.753a5.135 5.135 0 0 0-0.292-0.47c-0.423-0.546-0.409-0.496-0.355-1.271 0.065-0.927 0.129-1.442 0.182-1.46 0.159-0.052 1.857 2.55 1.857 2.844 0 0.069-0.062 0.29-0.138 0.492a4.602 4.602 0 0 0-0.161 0.497c-0.031 0.167-0.24 0.543-0.302 0.542-0.025 0-0.171-0.19-0.325-0.421zm-4.626-0.332a10.472 10.472 0 0 1-0.184-0.558c-0.059-0.194-0.231-0.684-0.383-1.088-0.276-0.735-0.276-0.735-0.177-0.96 0.149-0.335 0.362-0.933 0.443-1.24 0.074-0.283 0.615-1.432 0.673-1.432 0.16 0 1.184 1.518 1.184 1.756 0 0.126-0.292 0.859-0.58 1.456a7.53 7.53 0 0 0-0.477 1.253c-0.316 1.076-0.367 1.158-0.499 0.813zm-0.895-0.193c-0.54-0.308-1.156-0.6-1.642-0.781-0.56-0.209-1.095-0.433-1.143-0.48-0.068-0.066-0.392-1.395-0.444-1.822-0.06-0.493-0.058-0.495 0.465-0.246 0.234 0.111 0.438 0.202 0.452 0.202 0.094 0 1.999 0.928 2.042 0.996 0.131 0.2 0.802 2.169 0.802 2.35 0 0.086 0.013 0.092-0.532-0.22zm6.682-0.244c0-0.08 0.507-0.517 0.939-0.81 0.204-0.138 0.749-0.565 1.21-0.948 0.887-0.736 0.917-0.75 0.86-0.407-0.272 1.633-0.27 1.629-0.588 1.532-0.675-0.206-1.788 0.083-2.262 0.587-0.106 0.113-0.16 0.128-0.16 0.046zm0.129-0.601 0.143-0.97c0.21-1.427 0.119-1.206 0.76-1.839 0.304-0.301 0.677-0.653 0.828-0.783 0.15-0.13 0.358-0.319 0.46-0.42 0.2-0.2 0.66-0.541 0.727-0.541 0.106 0 0.144 0.751 0.087 1.7-0.054 0.894 3e-3 0.783-0.676 1.318a86.58 86.58 0 0 0-0.835 0.666c-0.152 0.123-0.504 0.373-0.783 0.555-0.28 0.182-0.532 0.36-0.561 0.396-0.1 0.121-0.175 0.08-0.15-0.082zm-0.55-0.561a20.588 20.588 0 0 0-1.348-2.006c-0.17-0.21-0.307-0.414-0.307-0.452 0-0.424 0.28-2.004 0.354-2.004 0.02 0 0.127 0.136 0.24 0.303 0.112 0.167 0.308 0.444 0.435 0.616 0.128 0.171 0.29 0.427 0.362 0.568 0.071 0.14 0.252 0.445 0.4 0.676 0.49 0.76 0.511 1.033 0.2 2.507-0.054 0.257-0.079 0.241-0.336-0.208zm-6.35-1.163c-0.023-0.059-0.103-0.275-0.177-0.48a19.328 19.328 0 0 0-0.316-0.802c-0.1-0.237-0.27-0.71-0.375-1.052a17.774 17.774 0 0 0-0.414-1.166c-0.265-0.656-0.262-0.681 0.078-0.646 0.691 0.07 1.496 0.512 2.207 1.21 0.297 0.292 0.303 0.188-0.05 0.9-0.163 0.329-0.341 0.747-0.397 0.93-0.128 0.423-0.443 1.214-0.482 1.214-0.017 0-0.05-0.048-0.074-0.108zm-1.071-0.23a36.054 36.054 0 0 0-1.069-0.485c-1.132-0.474-1.11-0.446-0.997-1.233 0.157-1.103 0.912-2.289 1.35-2.12 0.076 0.029 0.498 1.141 0.679 1.791 0.087 0.315 0.25 0.8 0.361 1.078 0.333 0.83 0.483 1.307 0.41 1.307-0.01 0-0.34-0.152-0.734-0.338zm7.954-0.573a6.753 6.753 0 0 0-0.307-0.499 8.153 8.153 0 0 1-0.367-0.607 5.77 5.77 0 0 0-0.39-0.607c-0.719-0.97-0.752-1.054-0.617-1.518 0.311-1.066 0.666-1.91 0.804-1.91 0.047 0 0.17 0.141 0.355 0.406 0.156 0.223 0.38 0.505 0.497 0.627 0.762 0.789 0.803 0.918 0.607 1.94-0.1 0.52-0.237 1.244-0.305 1.61-0.155 0.836-0.145 0.816-0.277 0.558zm0.436-0.15c0-0.095 0.436-2.723 0.462-2.784 0.015-0.036 0.116-0.129 0.223-0.205 1.24-0.882 1.387-0.976 1.452-0.922 0.067 0.055 0.195 0.55 0.29 1.114 0.122 0.724 0.131 0.686-0.224 0.948-0.406 0.298-0.966 0.786-1.601 1.392-0.499 0.476-0.602 0.555-0.602 0.456zm0.523-3.18c0.113-0.451 0.26-1.721 0.26-2.25 0-0.47 0.013-0.48 0.3-0.252 0.253 0.199 0.344 0.325 0.67 0.927 0.352 0.65 0.356 0.663 0.217 0.747-0.06 0.037-0.25 0.159-0.423 0.272-0.172 0.112-0.393 0.254-0.49 0.313a2.81 2.81 0 0 0-0.304 0.22c-0.16 0.14-0.262 0.15-0.23 0.024zm-0.467-0.332a7.5 7.5 0 0 0-0.47-0.558 6.924 6.924 0 0 1-0.492-0.602l-0.302-0.42c-0.062-0.084-0.02-0.15 0.319-0.501 0.53-0.551 1.504-0.663 1.576-0.181 0.044 0.289-0.066 1.361-0.22 2.155a25.14 25.14 0 0 0-0.075 0.401c-1e-3 0.082-0.156-0.053-0.336-0.294zm24.271-2.015c0.141-0.264-0.122-1.842-0.399-2.386-0.072-0.142-0.071-0.144 0.063-0.742 0.163-0.73 0.152-0.716 0.508-0.635 0.813 0.184 1.749 0.063 1.964-0.255 0.303-0.45 1.06-2.458 1.426-3.788 0.089-0.323 0.188-0.628 0.22-0.678a0.382 0.382 0 0 0 0.051-0.196c-0.017-0.264 0.042-0.315 0.181-0.158 0.325 0.364 0.794 0.287 1.007-0.167 0.153-0.326 0.154-0.327 0.263-0.035 0.297 0.795 0.89 1.005 1.077 0.38 0.054-0.18 0.078-0.81 0.047-1.202-7e-3 -0.092 4e-3 -0.099 0.194-0.105 0.988-0.034 0.839-1.954-0.182-2.347-0.247-0.094-0.275-0.124-0.275-0.286 0-0.473-0.259-1.007-0.704-1.454-0.804-0.806-1.635-0.908-2.344-0.288-0.23 0.201-0.25 0.196-0.316-0.078-0.363-1.497-2.059-2.027-2.756-0.861-0.156 0.26-0.136 0.262-0.473-0.047a2.704 2.704 0 0 0-0.487-0.357c-0.591-0.29-1.436 0.136-1.558 0.786-0.028 0.149-0.029 0.15-0.17 0.117-1.327-0.303-2.257 0.769-1.805 2.082 0.042 0.124 0.077 0.238 0.077 0.253 0 0.016-0.132 0.05-0.294 0.076-0.72 0.116-1.004 0.714-0.726 1.523 0.124 0.363 0.124 0.363-0.07 0.547-0.387 0.365-0.338 0.939 0.12 1.407 0.161 0.165 0.161 0.165 0.09 0.398-0.099 0.328-0.069 0.583 0.114 0.973 0.149 0.317 0.149 0.317 0.037 0.546-0.207 0.423-0.146 0.853 0.187 1.31 0.061 0.085-0.575 2.384-0.678 2.447a1.968 1.968 0 0 1-0.32 0.073c-0.281 0.047-0.281 0.047-0.28 0.243 2e-3 0.201 0.405 1.09 0.763 1.678 0.079 0.13 0.236 0.416 0.35 0.637 0.205 0.4 0.34 0.558 0.476 0.558 0.12 0 1.726-0.804 1.956-0.979 0.274-0.208 0.407-0.199 0.777 0.051 0.143 0.097 0.436 0.278 0.651 0.402 0.216 0.124 0.489 0.3 0.607 0.39 0.374 0.283 0.545 0.328 0.631 0.167zm-0.492-0.365a11.12 11.12 0 0 0-0.698-0.45c-0.588-0.353-0.71-0.447-0.683-0.521 0.037-0.096 1.23-0.862 1.3-0.835 0.162 0.062 0.45 1.944 0.298 1.944a0.933 0.933 0 0 1-0.217-0.138zm-4.244-0.048a4.864 4.864 0 0 1-0.238-0.43 7.365 7.365 0 0 0-0.293-0.53c-0.163-0.255-0.69-1.36-0.69-1.446 0-0.068 0.077-0.11 0.201-0.11 0.097 0 2.981 1.425 3.049 1.506 0.083 0.101-0.143 0.25-1.253 0.82-0.644 0.331-0.671 0.338-0.776 0.19zm1.285-1.69c-1.636-0.826-1.8-0.916-1.801-0.986 0-0.034 0.044-0.193 0.1-0.353 0.126-0.37 0.739-2.625 0.956-3.52 0.091-0.375 0.174-0.703 0.184-0.73 0.01-0.026-0.038-0.105-0.107-0.175-0.757-0.775-0.591-2.848 0.211-2.647 0.365 0.092 0.63 0.806 0.462 1.248-0.087 0.226-0.095 0.83-0.014 0.93 0.119 0.146 0.261 0.036 0.342-0.263 0.121-0.45 0.099-0.42 0.322-0.442 0.353-0.035 0.53-0.31 0.586-0.917 0.024-0.257 0.024-0.257 0.227-0.257 0.429 0 0.781-0.216 0.984-0.605 0.141-0.27 0.174-0.27 0.325-2e-3 0.4 0.71 1.313 0.901 1.83 0.385 0.165-0.165 0.138-0.177 0.361 0.154 0.581 0.858 1.297 1.14 1.727 0.679 0.134-0.144 0.161-0.131 0.326 0.152 0.148 0.251 0.148 0.251 0.081 0.39-0.075 0.159-0.084 0.16-0.39 0.081-0.981-0.255-1.349 0.208-1.58 1.993-0.191 1.478-0.19 1.476-0.876 1.297-0.287-0.075-0.3-0.074-0.3 0.018 0 0.252 0.658 0.481 0.921 0.321 0.368-0.224 0.393-0.29 0.47-1.255 0.058-0.74 0.099-0.867 0.183-0.57 0.065 0.23 0.168 0.295 0.128 0.08-0.032-0.171-4e-3 -0.177 0.137-0.026 0.143 0.154 0.291 0.187 0.499 0.112 0.092-0.033 0.175-0.051 0.185-0.041 0.034 0.034-0.249 0.77-0.31 0.803-0.035 0.02-0.059 0.088-0.059 0.17 0 0.144-0.687 1.84-0.816 2.014-0.159 0.213-0.553 0.276-1.221 0.194a5.107 5.107 0 0 1-0.841-0.174c-0.15-0.04-0.19 0.047-0.393 0.848-0.2 0.796-0.2 0.796-0.543 0.992-0.189 0.108-0.511 0.306-0.717 0.44-0.453 0.297-0.216 0.348-1.579-0.339zm4.325-2.553a0.428 0.428 0 0 0 0.101-0.215c0-0.115-0.063-0.126-0.098-0.017-0.09 0.283-0.526 0.2-0.627-0.12-0.03-0.095-0.137-0.1-0.137-7e-3 0 0.35 0.55 0.61 0.76 0.359zm-0.23-3.176c0.185-0.38 0.203-0.458 0.128-0.534-0.074-0.074-0.103-0.058-0.184 0.1-0.092 0.18-0.208 0.289-0.424 0.397-0.452 0.227-0.769-0.01-0.989-0.74-0.082-0.271-0.14-0.246-0.135 0.059 0.01 0.734 0.58 1.146 1.296 0.937 0.072-0.02 0.082-0.012 0.064 0.058-0.054 0.207 0.085 0.05 0.244-0.277zm0.837-1.28c0.12-0.223-0.689-0.589-1.79-0.812-0.667-0.135-1.187-0.03-1.044 0.21 0.199 0.332 2.695 0.863 2.834 0.602zm1.04 1.699a1.066 1.066 0 0 1-0.194-0.333c-0.048-0.145-0.085-0.197-0.14-0.197-0.107 0-0.098-0.145 0.027-0.463 0.137-0.349 0.12-0.34 0.47-0.23 0.17 0.053 0.41 0.118 0.533 0.143 0.27 0.055 0.27 0.06 0.122 0.544-0.181 0.59-0.544 0.827-0.818 0.536zm3.15-3.53c-0.07-0.085 0.088-0.221 0.236-0.204 0.142 0.017 0.15 0.13 0.016 0.204-0.142 0.077-0.187 0.076-0.251 0zm-8.795-0.86c-0.035-0.09 0.044-0.149 0.16-0.12 0.066 0.017 0.1 0.052 0.1 0.103 0 0.099-0.223 0.112-0.26 0.016zm0.404-0.415c-0.226-0.155-0.274-0.308-0.097-0.308 0.105 0 0.345 0.19 0.345 0.273 0 0.142-0.076 0.152-0.248 0.035zm5.638-0.222c-0.035-0.058 0.098-0.438 0.153-0.438 0.1 0 0.1 0.114 0 0.42-0.019 0.056-0.122 0.067-0.152 0.018zm-1.718-0.492c-0.072-0.195-0.048-0.299 0.07-0.299 0.053 0 0.175 0.27 0.175 0.386 0 0.203-0.158 0.147-0.245-0.087zm-3.867-0.036c-0.158-0.08-0.135-0.24 0.036-0.256 0.309-0.03 0.467 0.06 0.412 0.234-0.028 0.088-0.293 0.1-0.448 0.022z" fill="#1f1f1e"/>
  </g><path class="nsr-dashed-line" d="m95.746 69.157c55.644 0.53617 90.336-15.926 166.55-19.611" fill="none" stroke="#000" stroke-dasharray="4.76249993,4.76249993" stroke-linecap="round" stroke-width=".79375"/><g stroke-width=".69008"><g transform="matrix(1.4491 0 0 1.4491 58.282 8.9005)"><g stroke-width="2.6082">
    <path transform="scale(.26458)" d="m620.99 139.42-1.33 0.289c-0.732 0.158-4.27 0.506-7.863 0.773-6.14 0.457-9.777 0.89-16.696 1.989-2.656 0.421-27.023 3.5-33.04 4.173-2.61 0.293-3.615 0.929-2.528 1.6 0.676 0.418 0.354 0.446 13.793-1.2 12.14-1.485 20.862-2.609 24.92-3.208 1.73-0.256 7.306-0.86 12.39-1.344 9.635-0.917 10.354-1.078 10.354-2.318zm-0.727-9.807-2.177 0.024c-2.18 0.023-10.135 0.908-24.196 2.691a928.38 928.38 0 0 1-13.916 1.645c-3.529 0.381-8.32 1.008-10.646 1.394s-5.536 0.842-7.133 1.012c-3.845 0.41-4.596 0.659-4.596 1.531v0.732l3.266-0.32c1.796-0.176 5.878-0.724 9.072-1.22 3.194-0.497 7.223-1.034 8.953-1.194s5.542-0.602 8.47-0.982c5.24-0.68 20.044-2.424 32.179-3.791a0.833 0.833 0 0 0 0.724-0.803zm-0.975-7.943-7.98 0.676c-4.389 0.371-13.206 1.325-19.593 2.117-6.388 0.792-13.792 1.574-16.454 1.738-12.505 0.773-17.426 1.412-16.939 2.2 0.512 0.827 21.898-0.46 31.697-1.907 4.997-0.738 15.146-1.849 22.502-2.463 3.726-0.311 6.982-0.761 7.235-1l0.46-0.433-0.464-0.465zm9e-3 -8.026-2.42 0.123c-3.68 0.186-12.87 1.077-19.356 1.88-3.193 0.394-7.657 0.907-9.92 1.136-2.262 0.23-7.162 0.761-10.888 1.182-3.726 0.42-9.061 1.019-11.856 1.33-2.794 0.311-5.584 0.745-6.199 0.965l-1.117 0.4 0.299 0.484c0.38 0.615 1.922 0.613 6.775-0.01 4.784-0.613 31.944-3.648 41.131-4.595 3.726-0.384 7.865-0.706 9.195-0.715 2.55-0.018 4.86-0.88 4.543-1.695z" fill="#f054ac"/>
    <path transform="scale(.26458)" d="m704.4 98.729-2.548 0.537c-0.669 0.14-1.374 0.36-1.926 0.584s-0.992 0.555-0.924 0.478l-0.967 1.082-4.176 0.62-4.26 0.63-1.003-0.834c-0.651-0.54-1.14-1.332-1.533-2.154l-0.329-0.688-0.68 0.016-5.122 0.121-2.846 0.067-0.293 11.994c-0.174 7.123-0.455 16.92-0.625 21.785l-0.246 7.047a65.265 65.265 0 0 0 2.47-2.243c5.352-5.093 11.233-10.1 16.118-13.85 2.442-1.874 4.633-3.433 6.402-4.54 0.885-0.554 1.664-0.993 2.336-1.309 0.673-0.315 1.198-0.537 1.838-0.537h1.447l6.14 6.055c2.985 2.942 6.82 6.33 10.048 8.963 1.613 1.317 3.078 2.447 4.195 3.234 0.558 0.393 1.033 0.701 1.373 0.895 0.234 0.133 0.223 0.127 0.23 0.144 0.06-0.038 0.099-0.062 0.18-0.12 0.298-0.216 0.722-0.552 1.217-0.972a75.983 75.983 0 0 0 3.611-3.302c4.261-4.134 7.516-6.968 14.823-12.907 0.59-0.479 1.109-0.9 1.8-1.13 0.692-0.23 1.508-0.148 2.254 0.203 1.493 0.7 3.145 2.262 6.375 5.252 3.15 2.914 7.464 6.733 9.524 8.431 2.116 1.746 5.057 4.298 6.592 5.725 0.73 0.68 1.46 1.3 2.025 1.734 0.061 0.047 0.091 0.063 0.148 0.106v-2.196c0-0.969-5e-3 -1.691-0.039-2.164-0.019-0.248-0.01-0.195-0.033-0.283-0.213 0.053-0.484 0.13-0.957 0.295l-2.066 0.723-1.194-0.99-1.187-0.987 0.285-1.955 0.09-0.605-0.383-0.145c-0.647-0.246-1.296-0.632-1.611-1.31-0.316-0.679-0.274-1.355-0.188-2.217 5e-3 -0.048-0.148-0.899-0.332-1.242l-0.781-1.46 0.803-1.5 0.298-0.556-0.378-0.71-0.909-1.692 0.81-1.284c1.143-1.81 3.395-3.042 5.95-3.52 0.795-0.148 1.344-0.237 1.568-0.323 0.226-0.087 0.17-0.01 0.276-0.305 0.21-0.59 0.286-2.656 0.375-6.928l0.148-7.096-0.181-0.18-0.205-0.206-9.909-0.406c-2.837-0.117-5.5-0.25-7.511-0.37-1.006-0.06-1.848-0.117-2.473-0.168-0.312-0.025-0.57-0.049-0.773-0.072-0.205-0.023-0.273-8e-3 -0.55-0.096 0.284 0.09 0.106 0.024 9e-3 0.016a19.81 19.81 0 0 0-0.444-0.027c-0.387-0.022-0.947-0.046-1.652-0.073-1.41-0.053-3.406-0.115-5.84-0.181-4.868-0.132-11.484-0.281-18.668-0.416zm30.461 8.87 1.56 1.192c0.86 0.655 1.705 1.764 1.882 2.467l0.32 1.28-0.539 1.636c-0.297 0.9-1.1 2.077-1.781 2.613l-1.24 0.975-1.506-0.031c-2.155-0.044-3.343-0.63-4.815-2.38-1.5-1.781-1.518-1.915-0.594-4.126l0.698-1.668 1.601-0.977c0.881-0.537 2.235-0.977 3.008-0.978z" fill="#24acf2"/>
    <path transform="scale(.26458)" d="m772.43 77.598c-10.586 0-20.224 4.672-30.907 14.984l-2.945 2.844c1.795 0.101 3.752 0.202 5.93 0.293 7.487 0.312 11.34 0.495 16.277 0.717 0.763-0.686 1.975-1.418 2.61-1.418 0.5 0 0.989 0.827 1.115 1.582 1.741 0.08 5.06 0.217 6.447 0.285 2.843 0.14 4.959 0.254 6.434 0.35 1.474 0.094 2.171 0.129 2.693 0.245l1.773 0.397 0.399 6.375c0.196 3.145 0.215 7.232 0.025 9.305v2e-3l-0.267 2.955 0.949 0.675c2.99 2.13 9.599 4.667 25.877 9.715a45.11 45.11 0 0 1 3.613 1.278c-0.389-1.251 1.43-19.027 2.148-20.946 0.225-0.598 0.646-1.088 0.936-1.088 0.77 0 3.9 7.072 6.211 14.034 1.105 3.327 2.244 6.701 2.53 7.5 0.285 0.798 0.633 1.833 0.775 2.299l0.256 0.847-1.145-0.066c-3.718-0.215-7.484-0.847-9.713-1.531 0.096 0.085 0.194 0.213 0.283 0.484l0.631 1.918h-2.555c-0.108 0-0.23-0.026-0.343-0.035l0.336 1.722c0.236 1.21 0.281 2.996 0.1 3.967l-0.153 0.815c0.095 0.037 0.223 0.08 0.307 0.115 0.284 0.12 0.426 0.107 0.787 0.449l1.2 1.145-2.073 2.073-4.664-1.29c-2.282-0.631-6.63-1.922-9.704-2.883-4.56-1.426-8.466-2.59-11.369-3.395a94.172 94.172 0 0 0-3.55-0.925 15.801 15.801 0 0 0-1.616-0.303h-0.074l0.11 3.93 0.115 4.209 1.695 0.445c1.096 0.287 5.001 0.802 8.287 1.039 3.382 0.244 7.933 0.842 10.307 1.367l4.877 1.08 0.066 2.76c0.75-2e-3 2.307 0.231 3.943 0.617l3.655 0.86 1.178-1.178-0.792-2.196-0.789-2.195 0.746-0.287c0.411-0.158 2.73 0.123 5.155 0.625l4.408 0.912 4.918 0.014 4.918 0.012 1.318-1.21c0.724-0.665 1.763-2.188 2.309-3.386l0.992-2.178-0.037-4.113c-0.126-13.583-4.186-28.682-10.979-40.828l-1.75-3.127-2.246-1.979-2.246-1.976-1.986-0.551c-0.217-0.06-1.2-0.362-1.594-0.477l1.467 1.436-3.764-0.123h-2e-3c-0.376-0.013-0.688-0.09-1.226-0.205l-0.055-0.014c-0.425 0.613-6.654 2.67-10.85 3.559-6.544 1.386-12.064 0.65-18.172-2.426l-3.453-1.738-2.129-2.194c-1.171-1.205-2.13-2.388-2.13-2.627v-0.218l-2.13-0.766v-2.363zm-155.06-28.672-1.693 0.195c-1.322 0.153-5.654 0.474-9.787 0.736-9.455 0.6-27.286 2.134-35.762 3.075-3.602 0.4-8.204 0.864-10.272 1.037l-3.02 0.252c-3e-3 0.115-0.01 0.269-0.01 0.472-5e-3 0.444 0 1.066 0.015 1.813 0.029 1.494 0.094 3.487 0.19 5.61 0.193 4.277 0.373 10.97 0.396 14.92 0.011 1.947 0.064 3.72 0.14 4.985 8e-3 0.07 0.012 0.094 0.016 0.16a75.86 75.86 0 0 0 2.453-2.622c1.888-2.111 4.388-4.646 6.508-6.663a67.16 67.16 0 0 1 2.775-2.521c0.378-0.319 0.7-0.577 0.979-0.773a3.68 3.68 0 0 1 0.408-0.258c0.143-0.076 0.243-0.203 0.709-0.174h2e-3c0.51 0.033 0.473 0.132 0.594 0.2 0.12 0.067 0.243 0.146 0.386 0.241 0.287 0.191 0.65 0.45 1.088 0.774 0.877 0.647 2.047 1.548 3.38 2.597a335.26 335.26 0 0 1 8.825 7.213l3.774 3.2 7.87-7.864c2.353-2.35 4.577-4.486 6.274-6.043a57.486 57.486 0 0 1 2.112-1.863c0.273-0.226 0.502-0.405 0.705-0.547 0.101-0.07 0.193-0.132 0.304-0.191 0.112-0.06 0.186-0.162 0.594-0.162 0.466 0 0.544 0.116 0.715 0.203 0.17 0.087 0.346 0.19 0.545 0.318 0.398 0.256 0.886 0.604 1.453 1.03a84.65 84.65 0 0 1 4.063 3.287 117.28 117.28 0 0 0 3.908 3.218c0.352 0.275 0.593 0.448 0.855 0.64v-4.995c0-4.189-0.224-9.464-0.529-13.772-0.153-2.153-0.325-4.067-0.498-5.472a24.677 24.677 0 0 0-0.254-1.678 5.055 5.055 0 0 0-0.104-0.44c-8e-3 -0.02-0.012-0.02-0.019-0.033zm-26.072 9.799h1.441l1.06 0.988c1.25 1.165 1.34 2.267 0.305 3.744l-0.752 1.074h-3.667l-0.801-0.885c-1.814-2.003-0.382-4.921 2.414-4.921z" fill="#f054ac"/>
    </g><path transform="scale(.26458)" d="m693.34 13.65-16.695 0.996c-27.535 1.642-34.36 1.982-39.53 1.981-2.712 0-8.808 0.32-13.549 0.715-4.74 0.394-16.35 1.262-25.798 1.928-9.449 0.665-18.158 1.326-19.356 1.468-1.197 0.142-8.056 0.69-15.242 1.217-13.77 1.01-19.88 1.692-21.852 2.441l-1.193 0.454 0.291 3.267c0.16 1.797 0.607 20.143 0.992 40.77 0.643 34.389 1.365 55.394 2.627 76.457 0.263 4.391 0.723 13.537 1.02 20.324s0.71 12.52 0.92 12.74l0.379 0.399 20.99-0.522c25.955-0.644 42.957-1.33 54.62-2.205 4.925-0.37 11.347-0.805 14.274-0.967 2.928-0.162 11.312-0.733 18.631-1.27 7.32-0.536 14.07-1.015 15.002-1.066l1.694-0.091 0.154 2.168c0.085 1.192 0.383 2.443 0.664 2.78l0.51 0.616h5.627c3.094 0 12.92 0.213 21.836 0.477 8.916 0.263 25.957 0.617 37.867 0.785l21.654 0.304v0.807c0 0.444-0.756 2.66-1.68 4.924-1.929 4.731-3.387 10.877-8.724 36.738-1.55 7.507-2.832 12.244-7.266 26.858-0.646 2.129-1.512 5.48-1.924 7.45l-0.748 3.583 0.735 0.81 0.732 0.81-0.744 2.509c-1.324 4.46-5.084 13.823-6.291 15.666-0.646 0.986-2.332 2.666-3.746 3.734l-2.572 1.941-2.516 0.645c-1.384 0.354-2.756 0.883-3.049 1.176l-0.531 0.531 0.31 0.984c0.172 0.541 0.902 1.212 1.621 1.49 0.72 0.28 2.494 0.415 3.942 0.301l2.633-0.207 2.931-1.523c1.613-0.839 3.4-1.956 3.971-2.482l1.037-0.957 0.295 0.476c0.162 0.262 0.188 0.768 0.057 1.125-0.419 1.138 0.411 1.709 2.972 2.041l2.494 0.324 0.772-0.771 0.771-0.772v-1.56c0-2.452 1.843-10.525 3.811-16.692l1.797-5.632h1.265c0.697 0 1.406-0.136 1.575-0.303 0.683-0.678 9.103-24.79 13.582-38.893a1570.1 1570.1 0 0 1 4.884-15.103c1.166-3.517 2.12-6.625 2.12-6.907 0-0.281 0.741-2.413 1.648-4.736 2.498-6.4 4.96-16.088 5.856-23.043 0.441-3.43 0.979-6.695 1.195-7.258l0.392-1.021 0.192 22.26 0.19 22.26 1.115 2.81 1.117 2.81 2.148 1.56c1.182 0.857 3.502 2.082 5.156 2.722 1.655 0.64 4.425 1.86 6.155 2.71 5.626 2.768 19.643 7.378 23.187 7.628l1.172 0.082 0.604-2.338c0.79-3.065 0.67-3.009 4.177-2.033 6.84 1.902 10.262 4.371 12.43 8.968l1.254 2.662-0.049 4.477-0.049 4.475h1.067c2.75 0 4.595-3.321 4.595-8.27v-3.367l-1.017-2.772c-0.56-1.523-1.129-3.258-1.266-3.857l-0.248-1.09h1.41c0.777 0 1.673-0.26 1.993-0.58l0.582-0.582v-5.579l-0.848-0.435c-1.313-0.673-6.962-1.858-14.381-3.015-3.718-0.58-7.202-1.346-7.742-1.7-0.54-0.353-2.29-1.069-3.887-1.59-3.695-1.204-13.614-5.083-17.498-6.843l-2.982-1.352-0.04-9.123c-0.041-9.787 0.506-17.577 1.645-23.398 0.39-1.996 1.157-6.601 1.703-10.235l0.992-6.605-0.136-5.69-0.137-5.689-4.113-0.91c-2.263-0.5-6.836-1.106-10.162-1.346-3.327-0.24-7.138-0.721-8.47-1.07l-2.417-0.635-0.139-4.959-0.138-4.96 1.107 1e-3c1.175 3e-3 7.696 1.814 16.832 4.67 3.06 0.957 7.41 2.25 9.668 2.873l4.105 1.135 0.47-0.469 0.468-0.469-0.461-0.437c-0.253-0.24-2.201-0.909-4.33-1.486-2.13-0.578-5.179-1.461-6.776-1.961-4.68-1.467-16.759-4.905-19.001-5.41l-2.065-0.465-2.191 1.283c-3.035 1.779-3.484 1.357-1.426-1.338l1.75-2.293-0.695-0.268c-0.383-0.146-1.517 0.077-2.52 0.497-2.223 0.929-2.835 0.527-1.191-0.782a108.77 108.77 0 0 0 2.351-1.937l1.143-0.975-0.483-0.48-0.48-0.483-1.484 0.768c-0.816 0.422-1.766 0.761-2.112 0.754-0.741-0.016 2.373-2.74 3.606-3.154 0.465-0.157 0.845-0.598 0.845-0.979v-0.693l-2.298-0.04-2.3-0.039 1.454-0.666c0.798-0.365 2.28-0.673 3.293-0.685l1.84-0.022 3.127 1.885c3.012 1.817 14.152 6.02 19.92 7.518a91.957 91.957 0 0 1 5.648 1.709c1.572 0.541 3.385 0.986 4.031 0.986h1.176l-0.201-0.605c-0.11-0.333-2.469-1.31-5.242-2.17-16.294-5.053-22.922-7.55-26.16-9.856l-1.417-1.008 0.32-3.527c0.178-1.94 0.163-6.06-0.03-9.154l-0.352-5.623-1.041-0.235c-1.018-0.228-11.065-0.72-35.396-1.736-6.654-0.278-12.248-0.655-12.43-0.838-0.353-0.353 0.114-25.6 1.11-59.982l0.605-20.94-0.594-0.594-0.596-0.595-19.453-0.158zm89.5 11.688-1.768 1.457-1.767 1.457-0.567 1.715-0.566 1.717 0.789 2.412c0.939 2.87 0.827 3.129-1.537 3.564-5.572 1.026-10.774 5.457-10.774 9.178v1.223l-1.927 0.984c-2.263 1.154-3.542 2.884-3.29 4.451l0.18 1.117 1.07-1.738c0.59-0.956 1.597-1.978 2.24-2.271l1.17-0.534 0.44 0.578c0.242 0.318 0.71 2.102 1.04 3.965 0.833 4.715 2.76 9.286 4.995 11.856l1.895 2.177 2.264 0.827c1.245 0.454 2.869 0.836 3.607 0.847l1.342 0.02 0.422 1.107c0.232 0.61 0.5 2.516 0.594 4.235l0.17 3.125-1.452-0.051c-0.798-0.029-2.158-0.22-3.023-0.424l-1.574-0.371v1.492l2.056 0.738v2e-3c1.131 0.407 2.819 0.697 3.75 0.645l0.428-0.024 1.508 0.405-0.291-2.37-0.076-2.806c-0.07-2.586-0.325-5.222-0.567-5.857l-0.44-1.155-2.751-0.324c-3.21-0.377-4.257-0.848-6.399-2.875l-1.574-1.488c-0.174-0.276-0.35-0.58-0.525-0.873-0.541-1.034-1.022-2.124-1.492-3.18-0.21-0.47-0.393-1.063-0.563-1.7 0.325 0.187 0.677 0.292 1.027 0.313 1.064 0.065 2.102-0.444 3.079-0.865a0.5 0.5 0 0 0 0.267-0.287c0.208-0.178 0.44-0.34 0.545-0.584 0.156-0.364 0.223-0.766 0.215-1.174a3.039 3.039 0 0 0-0.176-0.906 0.498 0.498 0 0 0 0.086-0.236l0.14-1.426a0.5 0.5 0 0 0-0.449-0.547 0.5 0.5 0 0 0-0.547 0.443l-0.068 0.705c-0.06-0.031-0.116-0.066-0.182-0.091-0.057-0.022-0.1-0.021-0.15-0.032l0.127-1.283a0.5 0.5 0 0 0-0.56-0.545 0.5 0.5 0 0 0-0.428 0.45l-0.14 1.425v0.01c-0.053 0.01-0.094 9e-3 -0.15 0.02a13.98 13.98 0 0 0-1.734 0.435c-0.59 0.19-1.156 0.415-1.597 0.672-0.072-0.485-0.14-0.97-0.196-1.434-0.066-0.558-0.091-0.938-0.136-1.418a7.793 7.793 0 0 1 1.974-0.457c0.957-0.097 1.963-0.024 2.613 0.23a0.50045 0.50045 0 0 0 0.37-0.93c-0.902-0.354-2.025-0.395-3.086-0.288a8.819 8.819 0 0 0-1.971 0.418c-0.057-0.71-0.076-1.023-0.092-1.271 7e-3 -0.032 0.012-0.063 0.02-0.094l-0.041-0.197-6e-3 -0.096c0.037-0.115 0.899-2.705 4.076-3.95 0.093-0.036 0.212-0.07 0.31-0.107a7.722 7.722 0 0 0 2.84 2.506 0.50033 0.50033 0 1 0 0.467-0.885c-1.061-0.559-1.783-1.221-2.332-1.959 0.348-0.108 0.733-0.205 1.117-0.304a7.85 7.85 0 0 0 2.219 1.724 0.5 0.5 0 0 0 0.678-0.215 0.5 0.5 0 0 0-0.207-0.671 7.11 7.11 0 0 1-1.555-1.102c3.396-0.712 7.71-0.921 11.33 0.557 1.479 0.908 2.956 1.87 3.912 3.173 0.908 1.24 1.887 2.877 1.887 2.877 1.474 2.494 2.102-0.237 2.46-1.33l1.116-1.216c0.118-0.038 0.244-0.063 0.373-0.079l0.902 0.596c0.6 0.396 1.16 1.19 1.247 1.764l0.146 0.974c-0.027 0.055-0.065 0.109-0.096 0.162l-1.623 1.436c-0.368 0.326-0.654 0.614-0.898 0.887-0.407 0.231-0.785 0.433-0.785 0.433l-0.295 0.147 0.023 0.332s0.157 2.241 0.358 4.744c-0.101 0.71 0.2 3.54 0.662 6.928 0.106 0.913 0.216 1.785 0.33 2.523 0.032 0.211 0.1 0.514 0.138 0.744 0.752 4.973 1.662 9.997 2.079 10.67 0.026 0.043 0.12 0.104 0.257 0.176l0.059 0.252 0.117 0.457 0.457-0.082c0.203-0.036 0.524-0.034 0.922 0 1.454 0.532 3.583 1.219 6.016 1.91 4.103 1.166 7.998 2.138 8.654 2.16l1.193 0.041-0.709-0.695c-0.096-0.095-0.393-0.241-0.773-0.41l0.066-0.274a76.436 76.436 0 0 1-2.832-0.76c-2.734-0.95-6.557-2.137-10.326-3.146l-2.027-0.543-0.149-0.465c-0.111-0.464-0.253-1.077-0.457-1.95-0.678-3.718-1.869-12.585-1.87-14.335l-3e-3 -2.01 0.967 0.252 0.969 0.254v-1.521l-1.717-0.322a8.89 8.89 0 0 0-1.035-0.13 269.06 269.06 0 0 1-0.172-2.267c1.73 1.732 3.08-0.093 3.61-4.941l0.167-1.537c0.025-0.136 0.037-0.267 0.043-0.399l0.117-1.084-0.677-0.695a3.072 3.072 0 0 0-0.483-0.494l-0.92-0.942c-1.144-1.173-2.91-3.258-3.925-4.633-1.571-2.127-4.972-4.874-6.786-5.478l-0.515-0.172 1.064-2.477c2.302-5.35 0.551-9.312-4.115-9.312zm-52.488 0.281 0.511 0.514 0.514 0.512-0.752 24.927c-0.413 13.71-0.75 29.269-0.75 34.574v9.647l-0.582 0.58-0.58 0.58h-9.85l-0.6-0.72-0.599-0.723 0.42-17.303c0.477-19.681 0.389-31.243-0.287-37.822-0.022-0.211-0.76-0.17-27.844 1.603-10.113 0.662-22.418 1.44-27.342 1.727-4.923 0.287-10.997 0.656-13.496 0.82l-4.543 0.299 0.348 12.633c0.19 6.947 0.493 20.397 0.672 29.89 0.18 9.493 0.464 17.399 0.633 17.567 0.168 0.168 2.781-0.025 5.806-0.43 8.053-1.077 21.704-2.278 22.227-1.955l0.451 0.28 4e-3 8.56c5e-3 11.021-0.784 32.015-1.758 46.789l-0.765 11.613-0.555 0.563-0.555 0.562-9.193 0.758c-5.057 0.417-13.007 0.99-17.664 1.274-4.658 0.283-13.04 0.845-18.63 1.25-5.588 0.404-17.238 1.047-25.888 1.427h-2e-3c-8.65 0.38-23.803 0.836-33.676 1.014l-17.949 0.324-0.365-0.592c-0.56-0.906-1.636-20.865-3.63-67.31-0.643-14.963-1.643-69.68-1.28-70.043 0.38-0.38 8.393-1.46 16.978-2.29 3.993-0.384 9.22-0.92 11.616-1.189 8.7-0.978 39.954-3.649 65.326-5.582 8.667-0.66 22.913-1.613 39.922-2.67 13.453-0.835 29.525-1.43 41.734-1.545zm55.95 3.276c0.059 7e-3 0.124 0.029 0.19 0.07 0.267 0.164 0.483 0.6 0.483 0.967v0.668l-0.992-0.077c-1.08-0.08-1.426-0.3-1.426-0.898 0-0.214 0.325-0.262 0.724-0.11l0.727 0.28v-0.565c0-0.232 0.121-0.357 0.295-0.335zm-70.7 13.013 0.484 0.447 0.484 0.45-0.13 25.986c-0.072 14.292-0.25 26.373-0.399 26.846l-0.271 0.86-7.051-0.136-7.05-0.132-0.669-2.297-0.67-2.297-1.24-0.813-1.24-0.812-10.489-0.254-0.632 0.764-0.633 0.761-8e-3 2.473-6e-3 2.475-5.082 0.242c-5.58 0.265-6.291 0.504-6.291 2.11 0 1.568-0.908 2.243-3.012 2.243-1.017 0-6.121 0.44-11.344 0.977-5.222 0.537-9.953 1.083-10.513 1.215-0.56 0.13-1.345 0.027-1.745-0.233l-0.726-0.472-0.07-14.172c-0.04-7.794-0.278-20.16-0.53-27.479s-0.292-13.495-0.09-13.726c0.493-0.562 6.713-1.117 19.323-1.725 11.921-0.575 29.979-1.73 41.615-2.662zm69.55 3.569c-3.447-0.11-6.66 1.968-7.521 5.21a0.50041 0.50041 0 1 0 0.967 0.258c0.73-2.746 3.49-4.568 6.517-4.472a0.5 0.5 0 0 0 0.518-0.489 0.5 0.5 0 0 0-0.48-0.507zm-165.28 1.15-1.976 0.012c-1.974 0.01-16.482 0.98-28.832 1.93-3.593 0.275-11.491 1.042-17.55 1.7-6.057 0.66-12.512 1.198-14.343 1.198h-3.33l-0.213 0.605c-0.117 0.333-0.034 2.564 0.184 4.96 0.217 2.395 0.4 14.986 0.404 27.98l8e-3 23.625 0.455 0.85 0.455 0.849 3.104-0.373c4.358-0.525 24.684-1.788 34.213-2.125 14.456-0.512 28.25-1.836 29.468-2.828l0.678-0.553-0.33-10.646c-0.18-5.857-0.536-13.155-0.79-16.215-0.253-3.061-0.46-8.612-0.462-12.338-1e-3 -3.726-0.26-9.443-0.572-12.703zm166.24 0.809a0.5 0.5 0 0 0-0.486 0.455l-0.14 1.423a0.45 0.45 0 0 0 0 0.09c-0.964 0.087-1.948 0.342-2.643 0.819-0.783 0.537-1.582 1.673-1.97 2.783-0.195 0.555-0.307 1.125-0.046 1.652 0.131 0.264 0.376 0.488 0.672 0.6s0.628 0.132 1.012 0.088c1.778-0.207 3.37-0.412 4.539-1.086 0.584-0.337 1.069-0.816 1.33-1.453s0.296-1.407 0.125-2.31c-0.056-0.298-0.234-0.514-0.455-0.677l0.012-0.07 0.14-1.424a0.5 0.5 0 0 0-0.56-0.547 0.5 0.5 0 0 0-0.43 0.45l-0.12 1.228a4.572 4.572 0 0 0-0.614-0.072l0.136-1.397a0.5 0.5 0 0 0-0.443-0.547c-0.019-2e-3 -0.039-5e-3 -0.059-6e-3zm-168.63 0.628 0.513 0.618c0.655 0.788 1.555 13.489 1.555 21.937v6.494h-0.525c-0.29 0-2.94-2.067-5.891-4.595-2.95-2.529-5.706-4.598-6.123-4.598s-4.595 3.831-9.283 8.514l-8.524 8.513-4.474-3.795c-5.679-4.817-13.219-10.76-13.69-10.79-0.613-0.039-6.852 5.898-10.572 10.058-1.944 2.174-3.709 3.953-3.922 3.953s-0.409-3.213-0.432-7.139c-0.023-3.925-0.199-10.62-0.392-14.879-0.192-4.258-0.266-7.998-0.162-8.31l0.19-0.566 3.712-0.311c2.042-0.171 6.653-0.638 10.246-1.037 8.51-0.944 26.326-2.474 35.809-3.076 4.125-0.262 8.504-0.593 9.732-0.735zm168.53 2.305c0.476-0.013 0.912 0.037 1.19 0.127 0.279 0.09 0.322 0.175 0.325 0.191 0.146 0.775 0.094 1.323-0.075 1.735-0.168 0.411-0.457 0.711-0.9 0.967-0.371 0.214-0.87 0.374-1.43 0.511 0.077-0.15 0.117-0.317 0.117-0.486a1.08 1.08 0 0 0-1.085-1.074 1.08 1.08 0 0 0-1.084 1.074c0 0.307 0.133 0.6 0.365 0.803a42.95 42.95 0 0 1-1.031 0.133c-0.278 0.032-0.457 4e-3 -0.547-0.03s-0.108-0.052-0.133-0.103c-0.051-0.103-0.054-0.447 0.098-0.88 0.302-0.863 1.153-1.987 1.593-2.288 0.52-0.357 1.647-0.652 2.598-0.68zm3.552 3.955a0.5 0.5 0 0 0-0.487 0.453c-0.065 0.622 0.03 1.288 0.075 1.535a0.5 0.5 0 0 0 0.574 0.407 0.5 0.5 0 0 0 0.406-0.584c-0.023-0.13-0.11-0.837-0.066-1.254a0.501 0.501 0 0 0-0.502-0.557zm-12.855 0.276a0.5 0.5 0 0 0-0.434 0.717l0.76 1.601c0.15 0.314 0.094 0.674-0.05 1.174-0.145 0.5-0.382 1.085-0.332 1.763 0.037 0.486 0.156 0.89 0.376 1.204 0.22 0.313 0.554 0.523 0.915 0.56 0.72 0.075 1.36-0.467 1.69-1.275l0.76-1.854a0.5 0.5 0 0 0-0.273-0.65 0.5 0.5 0 0 0-0.656 0.273l-0.754 1.854c-0.223 0.545-0.543 0.669-0.664 0.656-0.06-6e-3 -0.115-0.021-0.2-0.14-0.083-0.12-0.172-0.348-0.198-0.702-0.027-0.379 0.135-0.865 0.295-1.416 0.159-0.55 0.308-1.21-8e-3 -1.875l-0.762-1.601a0.5 0.5 0 0 0-0.463-0.29zm-3.424 0.28c0.1-5e-3 0.18 7e-3 0.198 7e-3 0.29 0.127 0.516 0.578 0.527 1.123 8e-3 0.279-0.046 0.557-0.133 0.76-0.087 0.202-0.198 0.316-0.289 0.355-0.342 0.148-0.664 0.27-0.988 0.393 0.069-0.148 0.105-0.313 0.105-0.48 0-0.56-0.387-1.014-0.865-1.013-0.477 0-0.864 0.454-0.863 1.012 0 0.336 0.143 0.65 0.38 0.838-0.134 0.018-0.27 0.038-0.388 0.031a1.241 1.241 0 0 1-0.865-0.383c-0.249-0.244-0.494-0.704-0.701-1.359 0.05-0.049 0.137-0.12 0.28-0.205 0.333-0.194 0.859-0.414 1.41-0.592a13.1 13.1 0 0 1 1.603-0.406c0.233-0.043 0.44-0.07 0.59-0.08zm13.989 0.013c-0.015 0-0.035 0-0.051 2e-3a0.5 0.5 0 0 0-0.444 0.435c-0.106 0.963 0.027 1.712 0.061 1.904a0.5 0.5 0 0 0 0.582 0.4 0.5 0.5 0 0 0 0.406-0.575 5.537 5.537 0 0 1-0.05-1.618 0.5 0.5 0 0 0-0.504-0.548zm-2.037 0.802a0.5 0.5 0 0 0-0.494 0.44c-0.108 0.906 0.03 1.592 0.058 1.758a0.5 0.5 0 0 0 0.982-0.178c-0.038-0.212-0.14-0.703-0.05-1.461a0.499 0.499 0 0 0-0.496-0.559zm16.501 3.998c-0.399 0-0.726 0.219-0.726 0.485s0.327 0.482 0.726 0.482c0.4 0 0.727-0.216 0.727-0.482s-0.327-0.485-0.727-0.485zm-27.994 0.465a0.5 0.5 0 0 0-0.465 0.54l0.088 1.18a0.5 0.5 0 0 0 0.996-0.073l-0.087-1.182a0.5 0.5 0 0 0-0.532-0.465zm-1.322 0.76a0.5 0.5 0 0 0-0.494 0.51l0.023 0.717a0.5 0.5 0 0 0 0.998-0.024l-0.015-0.715a0.501 0.501 0 0 0-0.51-0.488zm10.121 1.352a0.5 0.5 0 0 0-0.502 0.494c-3e-3 0.337-0.123 0.88-0.332 1.197-0.104 0.158-0.216 0.255-0.332 0.303-0.116 0.047-0.254 0.066-0.494-0.016-0.094-0.032-0.284-0.186-0.422-0.34a2.665 2.665 0 0 1-0.22-0.281 0.5 0.5 0 0 0-0.696-0.154 0.5 0.5 0 0 0-0.154 0.687s0.13 0.195 0.324 0.412c0.194 0.218 0.456 0.487 0.85 0.621 0.422 0.144 0.841 0.135 1.19-7e-3 0.347-0.143 0.604-0.401 0.788-0.68 0.368-0.558 0.497-1.213 0.502-1.735a0.5 0.5 0 0 0-0.502-0.501zm-175.52 8.06c0.427 6e-3 3.498 2.385 6.826 5.287l6.05 5.278 0.303 2.343c0.458 3.564 0.455 20.07-4e-3 20.485-0.877 0.793-12.157 1.668-41.05 3.185v2e-3c-7.719 0.406-16.014 0.863-18.434 1.018l-4.398 0.283-0.317-4.057c-0.173-2.23-0.317-6.49-0.318-9.466l-2e-3 -5.413 3.002-3.78c3.654-4.604 11.449-12.735 12.207-12.735 0.788 0 5.961 3.994 12.13 9.369l5.323 4.637 0.969 0.023 0.967 0.024 7.984-8.247c4.391-4.535 8.335-8.24 8.762-8.236zm84.148 21.3h0.674c0.932 0 1.262 1.086 1.262 4.153 0 1.442-0.183 2.623-0.407 2.623-0.729 0-1.529-2.419-1.529-4.62zm-2.976 0.089a0.462 0.462 0 0 1 0.172 0.025l0.583 0.195 0.53 3.233c0.575 3.515 0.173 4.2-0.924 1.574-1.004-2.403-1.16-4.985-0.361-5.027zm7.937 0.49a0.832 0.832 0 0 1 0.32 0.121c0.568 0.35 0.695 3.219 0.221 4.986-0.624 2.331-1.834 0.752-1.846-2.406-5e-3 -1.674 0.576-2.805 1.305-2.701zm2.965 2.365c0.115-0.05 0.279 0.17 0.47 0.67h-1e-3c0.15 0.39 0.065 0.839-0.19 0.996l-0.463 0.287v-0.996c0-0.584 0.069-0.906 0.184-0.957zm4.898 3.346 26.131 0.492c14.372 0.27 26.466 0.597 26.877 0.727s5.383 0.427 11.047 0.66l10.299 0.424 0.482 0.48 0.48 0.483-0.155 7.523c-0.177 8.529 0.031 7.943-3.036 8.516-2.338 0.436-4.37 1.617-5.287 3.07l-0.498 0.79 0.631 1.183 0.633 1.18-0.55 1.029-0.552 1.027 0.53 0.986c0.29 0.543 0.49 1.361 0.445 1.817-0.163 1.624 0.043 2.065 1.16 2.49l1.131 0.432-0.205 1.398-0.205 1.4 0.756 0.63 0.758 0.626 1.533-0.533c2.334-0.814 2.357-0.786 2.357 3.094v3.629h-0.56c-0.309 0-1.792-1.144-3.295-2.541-1.504-1.398-4.45-3.956-6.547-5.686-2.098-1.73-6.403-5.54-9.567-8.467-6.454-5.972-6.825-6.147-9.119-4.283-7.299 5.932-10.513 8.73-14.756 12.846-2.69 2.609-5.21 4.744-5.601 4.744-1.256 0-10.618-7.64-16.65-13.588l-5.85-5.768h-1.037c-2.554 0-15.357 9.829-26.004 19.961-1.888 1.797-3.609 3.266-3.826 3.266h-0.397l0.309-8.832c0.17-4.857 0.45-14.656 0.625-21.775l0.318-12.944 3.799-0.092c2.09-0.05 4.395-0.104 5.123-0.12l1.324-0.03 0.608 1.268c0.334 0.697 0.907 1.516 1.271 1.818l0.662 0.55 3.817-0.566 3.816-0.564 0.727-0.815c0.399-0.447 1.922-1.066 3.386-1.375zm1.684 22.746c0.357 0 3.282 2.582 6.5 5.74s8.325 7.726 11.352 10.149l5.503 4.406 0.79-0.424c0.434-0.233 2.969-2.567 5.632-5.187 4.497-4.425 13.079-11.896 15.602-13.584l1.09-0.73 5.623 5.257c3.092 2.893 7.61 6.923 10.039 8.955s5.816 5.127 7.527 6.877l3.113 3.18-0.582 11.029c-0.319 6.065-0.578 12.444-0.576 14.174s-0.13 3.957-0.295 4.949l-0.298 1.805-1.51 0.23h-4e-3c-2.062 0.314-31.95 0.88-32.244 0.612-0.13-0.119-15.261-0.473-33.625-0.788-18.365-0.314-33.88-0.67-34.479-0.795l-1.088-0.226 0.01-3.014c6e-3 -1.658 0.327-6.936 0.713-11.726 0.386-4.791 0.707-10.276 0.715-12.192l0.016-3.482 4.015-4.02c9.05-9.054 24.208-21.195 26.461-21.195zm90.793 84.688c0.31 8e-3 0.835 0.255 1.43 0.705 0.516 0.39 0.83 0.703 0.697 0.695-0.572-0.036-2.42-0.913-2.42-1.149 0-0.176 0.107-0.256 0.293-0.251zm30.436 13.582 3.689 0.64c2.03 0.353 3.935 0.793 4.234 0.979l0.545 0.338-0.273 2.027c-0.15 1.115-0.373 2.516-0.494 3.115-0.122 0.599-0.489 1.07-0.817 1.049-1.651-0.111-8.102-2.486-8.144-2.998-0.148-1.784 0.195-4.052 0.691-4.565zm-83.579 42.939 2.705 0.563c3.49 0.724 3.427 0.468 1.526 6.34l-1.633 5.042-1.61 0.067c-2.008 0.082-3.86-0.262-4.58-0.852l-0.55-0.451 1.578-4.861c0.867-2.673 1.799-5.082 2.07-5.354z" fill="#1f1a1a" stroke-width="2.6082"/><g stroke-width=".69008"><g fill="#fff" fill-rule="evenodd">
    <circle cx="145.31" cy="7.914" r=".568"/>
    <circle cx="147.71" cy="7.724" r=".568"/>
    <circle cx="150.17" cy="7.567" r=".568"/>
    </g><path d="m203.94 16.673c-0.807 0.486-0.882 1.417-0.52 1.959 0.182 0.27 0.502 0.453 0.854 0.389 0.353-0.064 0.7-0.345 1.026-0.875l-0.338-0.207c-0.292 0.475-0.569 0.656-0.76 0.691s-0.336-0.046-0.451-0.219c-0.231-0.345-0.232-1.02 0.394-1.396z" color-rendering="auto" dominant-baseline="auto" fill="#f054ac" image-rendering="auto" shape-rendering="auto" style="font-feature-settings:normal;font-variant-alternates:normal;font-variant-caps:normal;font-variant-east-asian:normal;font-variant-ligatures:normal;font-variant-numeric:normal;font-variant-position:normal;font-variation-settings:normal;inline-size:0;isolation:auto;mix-blend-mode:normal;shape-margin:0;shape-padding:0;text-decoration-color:#000000;text-decoration-line:none;text-decoration-style:solid;text-indent:0;text-orientation:mixed;text-transform:none;white-space:normal"/>
    <path d="m211.74 14.055c0.269 0.116 0.339 0.235 0.404 0.376 0.066 0.14 0.065 0.288 0.012 0.44-0.107 0.301-0.442 0.573-0.772 0.583-0.236 7e-3 -0.55-0.229-0.673-0.521a0.631 0.631 0 0 1-0.037-0.428c0.04-0.133 0.132-0.26 0.337-0.371a0.19889 0.19889 0 1 0-0.189-0.35c-0.28 0.151-0.458 0.368-0.53 0.606-0.071 0.237-0.039 0.483 0.051 0.697 0.181 0.429 0.588 0.777 1.053 0.764 0.522-0.016 0.971-0.384 1.135-0.848a0.978 0.978 0 0 0-0.025-0.74c-0.113-0.243-0.264-0.404-0.599-0.549a0.812 0.812 0 0 1-0.167 0.341z" color-rendering="auto" dominant-baseline="auto" fill="#f054ac" image-rendering="auto" shape-rendering="auto" style="font-feature-settings:normal;font-variant-alternates:normal;font-variant-caps:normal;font-variant-east-asian:normal;font-variant-ligatures:normal;font-variant-numeric:normal;font-variant-position:normal;font-variation-settings:normal;inline-size:0;isolation:auto;mix-blend-mode:normal;shape-margin:0;shape-padding:0;text-decoration-color:#000000;text-decoration-line:none;text-decoration-style:solid;text-indent:0;text-orientation:mixed;text-transform:none;white-space:normal"/>
  </g></g><g transform="matrix(1.4491 0 0 1.4491 8.2068 9.7555)" fill="#fff">
  <path transform="scale(.26458)" d="m678.75 173.99c-1.781-2.895-6.257-137.3-4.572-137.3 0.322 0 7.964-0.829 16.983-1.842 9.019-1.012 28.407-2.835 43.085-4.05 56.56-4.681 76.832-5.943 104.04-6.478l23.239-0.457-0.539 22.166c-0.296 12.191-0.746 28.003-1 35.138l-0.461 12.973h-10.378v-27.92c0-15.355-0.167-28.07-0.371-28.257-0.204-0.186-16.988 0.694-37.297 1.956l-36.927 2.293 0.415 8.914c0.228 4.903 0.621 18.509 0.874 30.235 0.252 11.727 0.676 21.456 0.942 21.62s4.314-0.134 8.996-0.664c4.682-0.529 10.984-1.193 14.006-1.476l5.494-0.514-0.494 18.033c-0.744 27.197-2.022 48.299-2.984 49.289-2.026 2.086-121.87 8.261-123.05 6.341zm38.636-30.484c12.942-1.593 25.804-3.122 28.583-3.4 3.38-0.338 5.188-0.862 5.466-1.585 0.228-0.594 0.29-1.18 0.137-1.304-0.642-0.52-58.693 6.425-61.248 7.327-1.774 0.627-0.911 1.857 1.302 1.857 1.225 0 12.817-1.303 25.76-2.895zm-22.429-7.53c6.115-0.893 53.69-6.617 55.041-6.622 0.51 0 0.927-0.503 0.927-1.115 0-0.748-0.749-1.112-2.29-1.112-2.346 0-42.417 4.671-51.083 5.955-8.999 1.333-9.637 1.505-9.637 2.604 0 1.269 0.27 1.28 7.042 0.29zm14.826-10.312c8.657-0.76 35.205-3.615 38.78-4.17 1.467-0.228 2.332-0.738 2.146-1.266-0.405-1.155-4.878-0.921-25.73 1.346-9.173 0.997-20.803 2.158-25.843 2.579-9.43 0.788-12.22 1.472-9.057 2.219 2.039 0.481 9.015 0.23 19.704-0.708zm4.148-8.49c12.396-1.396 25.04-2.754 28.098-3.017 6.913-0.596 8.154-0.94 8.154-2.265 0-1.247 1.01-1.324-35.047 2.676-14.179 1.574-26.11 3.064-26.513 3.313-1.05 0.65-0.116 1.833 1.445 1.833 0.728 0 11.467-1.142 23.863-2.54zm-18.232-9.674c2.853-0.228 14.696-0.919 26.315-1.535 19.198-1.02 30.152-2.07 31.063-2.982 0.738-0.738-1.652-57.886-2.454-58.688-0.538-0.538-24.664 1.061-42.693 2.83-7.95 0.78-16.54 1.42-19.088 1.422-3.908 3e-3 -4.637 0.207-4.659 1.3-0.219 11.203 0.192 56.836 0.519 57.688 0.33 0.863 1.125 1.058 3.126 0.768 1.475-0.213 5.017-0.575 7.87-0.803z" opacity=".999" stroke-linecap="round" stroke-width="2.0702"/>
  <path transform="scale(.26458)" d="m828.58 174.59c-12.535-0.274-22.994-0.701-23.243-0.95-0.249-0.25-0.22-6.895 0.062-14.77l0.515-14.315 7.16-7.056c6.842-6.74 17.835-15.812 21.476-17.721 1.582-0.83 2.2-0.455 8.072 4.897 10.365 9.446 16.106 14.269 17.013 14.295 0.468 0.014 3.806-2.727 7.417-6.09 7.886-7.347 14.68-13.159 15.382-13.159 0.584 0 21.293 18.75 24.266 21.972l1.957 2.12-0.757 15.197c-0.416 8.358-0.907 15.363-1.092 15.567-0.51 0.566-52.55 0.575-78.228 0.013zm33.131-60.155c-3.707-1.8-3.853-5.867-0.277-7.716 2.859-1.478 3.864-1.367 5.744 0.633 2.012 2.143 2.03 3.484 0.075 5.968-1.615 2.054-3.026 2.338-5.542 1.115z" opacity=".999" stroke-linecap="round" stroke-width="2.0702"/>
  <path transform="scale(.26458)" d="m872.69 271.4c-0.824-0.109-1.794-0.391-2.155-0.627l-0.656-0.43 1.679-4.886c0.923-2.687 1.849-5.056 2.057-5.264 0.33-0.33 0.66-0.322 2.573 0.067 2.696 0.547 3.112 0.757 3.112 1.571 0 0.636-2.566 9.014-2.86 9.339-0.282 0.31-2.232 0.43-3.75 0.23zm88.453-47.571c-1.474-0.497-3.155-1.146-3.735-1.442-0.983-0.502-1.054-0.614-1.049-1.647 8e-3 -1.485 0.394-3.062 0.862-3.53 0.335-0.335 0.838-0.295 4.069 0.326 2.027 0.39 3.882 0.852 4.123 1.028 0.404 0.296 0.407 0.51 0.033 2.87-0.393 2.486-0.725 3.313-1.328 3.304-0.162-2e-3 -1.501-0.411-2.975-0.909zm-141.83-129.34c-0.344-0.793-0.685-2.179-0.757-3.08-0.121-1.505-0.09-1.638 0.39-1.638 0.457 0 0.563 0.287 0.849 2.294 0.18 1.26 0.285 2.647 0.234 3.08-0.087 0.745-0.123 0.712-0.717-0.656zm3.19 0.328c-0.231-0.541-0.476-1.956-0.543-3.146-0.104-1.841-0.061-2.162 0.289-2.162 0.88 0 1.227 1.054 1.227 3.728 0 2.784-0.27 3.22-0.972 1.58zm3.569 0.674c-0.54-1.008-0.616-3.686-0.132-4.623 0.238-0.459 0.543-0.835 0.678-0.835 0.811 0 1.09 3.49 0.41 5.12-0.446 1.064-0.548 1.1-0.956 0.338z" opacity=".999" stroke-width=".69008"/>
  <path transform="matrix(.9984 -.05668 .02176 .99976 0 0)" d="m189.12 60.019h34.27v2.072h-34.27z" opacity=".999" stroke="#000" stroke-linecap="round" stroke-linejoin="round" stroke-width=".31049"/>
  </g><g transform="matrix(1.4491 0 0 1.4491 8.2068 9.7555)"><path transform="matrix(.99818 -.060299 .060961 .99814 0 0)" d="m187.22 61.429h18.902v0.68h-18.902z" opacity=".999" stroke-width=".69008"/>
  <ellipse cx="185.89" cy="50.351" rx="2.224" ry="2.452" fill="#fff" opacity=".999" stroke-linecap="round" stroke-linejoin="round" stroke-width=".31039"/>
  <path class="nsr-pulse" d="m185.89 47.176a3.007 3.16 0 0 0-3.006 3.16 3.007 3.16 0 0 0 3.006 3.161 3.007 3.16 0 0 0 3.007-3.16 3.007 3.16 0 0 0-3.007-3.16zm-0.816 1.38 2.65 1.912-1.369 0.867-1.368 0.868 0.044-1.824z" fill="#f55" opacity=".999" stroke-linecap="round" stroke-width=".54775"/>
  </g></g><path class="nsr-pulse" d="m101.13 57.867a4.3628 4.3628 0 0 0-4.3628 4.3628 4.3628 4.3628 0 0 0 4.3628 4.3628 4.3628 4.3628 0 0 0 4.3628-4.3628 4.3628 4.3628 0 0 0-4.3628-4.3628m-3.1993 2.9085h1.1634a0.58172 0.58172 0 0 1 0.58172 0.5817v0.58172c0 0.29085-0.22105 0.52353-0.50028 0.56425l0.6806 1.1809h-0.67479l-0.66896-1.1634v1.1634h-0.5817m2.9085-2.9085h1.1634v0.5817h-1.1634v0.58172h1.1634v0.58171h-1.1634v0.5817h1.1634v0.58172h-1.1634a0.58172 0.58172 0 0 1-0.58172-0.58172v-1.7452a0.58172 0.58172 0 0 1 0.58172-0.5817m2.3268 0h1.1634v0.5817h-1.1634v1.7452h1.1634v0.58172h-1.1634a0.58172 0.58172 0 0 1-0.58172-0.58172v-1.7452a0.58172 0.58172 0 0 1 0.58172-0.5817m-4.6537 0.5817v0.58172h0.58172v-0.58172" fill="#f55"/></g>
</svg>
