<?xml version="1.0" encoding="UTF-8" standalone="no"?>
<svg
   width="256"
   height="256"
   version="1.1"
   viewBox="0 0 256 256"
   xml:space="preserve"
   id="svg3"
   sodipodi:docname="icon.svg"
   inkscape:version="1.3 (0e150ed, 2023-07-21)"
   xmlns:inkscape="http://www.inkscape.org/namespaces/inkscape"
   xmlns:sodipodi="http://sodipodi.sourceforge.net/DTD/sodipodi-0.dtd"
   xmlns="http://www.w3.org/2000/svg"
   xmlns:svg="http://www.w3.org/2000/svg"><defs
     id="defs3" /><sodipodi:namedview
     id="namedview3"
     pagecolor="#ffffff"
     bordercolor="#666666"
     borderopacity="1.0"
     inkscape:showpageshadow="2"
     inkscape:pageopacity="0.0"
     inkscape:pagecheckerboard="0"
     inkscape:deskcolor="#d1d1d1"
     inkscape:zoom="3.0032959"
     inkscape:cx="128.02601"
     inkscape:cy="127.52656"
     inkscape:window-width="1920"
     inkscape:window-height="1027"
     inkscape:window-x="0"
     inkscape:window-y="25"
     inkscape:window-maximized="1"
     inkscape:current-layer="svg3" /><g
     id="g2"><rect
       width="256"
       height="256"
       fill="#24acf2"
       opacity=".999"
       id="rect1" /><circle
       cx="128"
       cy="92.776"
       r="48.118"
       fill="#fff"
       opacity=".999"
       id="circle1" /><path
       d="m43.926 158.88v34.788h5.7628v-28.983h20.21c1.6588 0 3.0148 1.3514 3.0148 3.0102v25.972h5.8049v-28.72c0-3.3612-2.706-6.0671-6.0671-6.0671zm40.597 0v5.8049h34.792v-5.8049zm40.597 0v28.72c0 3.3612 2.706 6.0671 6.0671 6.0671h28.72v-5.805h-25.972c-1.6588 0-3.0102-1.3514-3.0102-3.0102v-25.972zm40.55 0v34.788h5.8049v-34.788zm17.635 0c-3.3612 0-6.0203 2.7028-6.0203 6.0203v22.742c0 3.3612 2.7028 6.025 6.0203 6.025h22.742c3.3175 0 6.025-2.7074 6.025-6.025v-22.742c0-3.3612-2.7075-6.0203-6.025-6.0203zm2.7527 5.7628h17.2c1.6588 0 2.968 1.3514 2.968 3.0102v17.2c0 1.6588-1.3092 2.968-2.968 2.968h-17.2c-1.6588 0-2.968-1.3092-2.968-2.968v-17.2c0-1.6588 1.3093-3.0102 2.968-3.0102zm-101.54 8.7262v5.8096h34.792v-5.8096zm0 14.494v5.805h34.792v-5.805z"
       fill="#095c8a"
       id="path1" /><path
       d="m128 35.059a57.952 57.952 0 0 0-57.952 57.952 57.952 57.952 0 0 0 57.952 57.952 57.952 57.952 0 0 0 57.952-57.952 57.952 57.952 0 0 0-57.952-57.952zm-39.616 30.824h79.23v10.938h-79.23zm0.0018 16.104h79.229v38.151h-79.229zm12.055 9.1284c-2.0824 4.658-2.0824 9.983 0 14.641h8.612v-14.641zm46.504 0v14.641h8.612c2.0824-4.658 2.0824-9.9828 0-14.641zm-29.711 0.04456v14.64h21.53v-14.64z"
       fill="#f054ac"
       opacity=".999"
       stroke-linecap="round"
       stroke-width="3.8097"
       id="path2" /></g><text
     x="63.691452"
     y="6.6809216"
     font-family="'Apple Braille'"
     font-size="26.667px"
     style="line-height:1.25"
     xml:space="preserve"
     id="text2"><tspan
       x="63.691452"
       y="6.6809216"
       font-family="Arial"
       id="tspan2" /></text><path
     style="font-weight:600;font-size:31.604px;line-height:1.25;font-family:Montserrat;letter-spacing:-0.51px;fill:#ffffff"
     d="M 42.698,226.03104 V 209.1545 h 3.760876 v 4.64579 l -0.442456,-1.35897 q 0.758496,-1.70662 2.3703,-2.59153 1.643408,-0.88491 4.076916,-0.88491 v 3.76087 q -0.252832,-0.0632 -0.47406,-0.0632 -0.221228,-0.0316 -0.442456,-0.0316 -2.243884,0 -3.571252,1.32737 -1.327368,1.29576 -1.327368,3.88729 v 8.18544 z m 20.373066,0.22122 q -2.812756,0 -4.930224,-1.10614 -2.085864,-1.13774 -3.255212,-3.09719 -1.137744,-1.95945 -1.137744,-4.45616 0,-2.52832 1.10614,-4.45617 1.137744,-1.95944 3.097192,-3.06558 1.991052,-1.10614 4.519372,-1.10614 2.465112,0 4.392956,1.07453 1.927844,1.07454 3.033984,3.03399 1.10614,1.95944 1.10614,4.61418 0,0.25283 -0.0316,0.56887 0,0.31604 -0.0316,0.60048 h -14.06378 v -2.62313 h 11.977916 l -1.548596,0.8217 q 0.0316,-1.45378 -0.600476,-2.55992 -0.63208,-1.10614 -1.73822,-1.73822 -1.074536,-0.63208 -2.496716,-0.63208 -1.453784,0 -2.559924,0.63208 -1.074536,0.63208 -1.706616,1.76982 -0.600476,1.10614 -0.600476,2.62313 v 0.63208 q 0,1.51699 0.695288,2.68634 0.695288,1.16935 1.959448,1.80143 1.26416,0.63208 2.907568,0.63208 1.42218,0 2.559924,-0.44246 1.137744,-0.44245 2.022656,-1.39057 l 2.117468,2.43351 q -1.137744,1.32736 -2.875964,2.05426 -1.706616,0.69528 -3.918896,0.69528 z m 18.958056,0 q -2.654736,0 -4.7406,-1.10614 -2.05426,-1.13774 -3.223608,-3.09719 -1.169348,-1.95945 -1.169348,-4.45616 0,-2.52832 1.169348,-4.45617 1.169348,-1.95944 3.223608,-3.06558 2.085864,-1.10614 4.7406,-1.10614 2.465112,0 4.329748,1.01132 1.89624,0.97973 2.875964,2.90757 l -3.033984,1.76983 q -0.758496,-1.20096 -1.864636,-1.76983 -1.074536,-0.56887 -2.338696,-0.56887 -1.453784,0 -2.623132,0.63208 -1.169348,0.63208 -1.833032,1.83303 -0.663684,1.16935 -0.663684,2.81276 0,1.64341 0.663684,2.84436 0.663684,1.16935 1.833032,1.80143 1.169348,0.63208 2.623132,0.63208 1.26416,0 2.338696,-0.56888 1.10614,-0.56887 1.864636,-1.76982 l 3.033984,1.76982 q -0.979724,1.89624 -2.875964,2.93918 -1.864636,1.01132 -4.329748,1.01132 z m 17.453309,0 q -2.591528,0 -4.614184,-1.10614 -2.022656,-1.13774 -3.192004,-3.09719 -1.169348,-1.95945 -1.169348,-4.45616 0,-2.52832 1.169348,-4.45617 1.169348,-1.95944 3.192004,-3.06558 2.022656,-1.10614 4.614184,-1.10614 2.623129,0 4.645789,1.10614 2.05426,1.10614 3.192,3.03398 1.16935,1.92784 1.16935,4.48777 0,2.49671 -1.16935,4.45616 -1.13774,1.95945 -3.192,3.09719 -2.02266,1.10614 -4.645789,1.10614 z m 0,-3.38162 q 1.453779,0 2.591529,-0.63208 1.13774,-0.63208 1.76982,-1.83304 0.66369,-1.20095 0.66369,-2.81275 0,-1.64341 -0.66369,-2.81276 -0.63208,-1.20095 -1.76982,-1.83303 -1.13775,-0.63208 -2.559925,-0.63208 -1.453784,0 -2.591528,0.63208 -1.10614,0.63208 -1.769824,1.83303 -0.663684,1.16935 -0.663684,2.81276 0,1.6118 0.663684,2.81275 0.663684,1.20096 1.769824,1.83304 1.137744,0.63208 2.559924,0.63208 z m 12.289579,3.1604 V 209.1545 h 3.76087 v 4.64579 l -0.44245,-1.35897 q 0.75849,-1.70662 2.3703,-2.59153 1.6434,-0.88491 4.07691,-0.88491 v 3.76087 q -0.25283,-0.0632 -0.47406,-0.0632 -0.22123,-0.0316 -0.44245,-0.0316 -2.24389,0 -3.57126,1.32737 -1.32736,1.29576 -1.32736,3.88729 v 8.18544 z m 19.58296,0.22122 q -2.43351,0 -4.39296,-1.07453 -1.92784,-1.10614 -3.03398,-3.03399 -1.10614,-1.92784 -1.10614,-4.55097 0,-2.62313 1.10614,-4.55098 1.10614,-1.92784 3.03398,-3.00238 1.95945,-1.07453 4.39296,-1.07453 2.11747,0 3.79248,0.94812 1.67501,0.91651 2.65474,2.81275 0.97972,1.89624 0.97972,4.86702 0,2.93917 -0.94812,4.86701 -0.94812,1.89624 -2.62313,2.84436 -1.67501,0.94812 -3.85569,0.94812 z m 0.47406,-3.38162 q 1.42218,0 2.52832,-0.63208 1.13774,-0.63208 1.80143,-1.83304 0.69529,-1.20095 0.69529,-2.81275 0,-1.64341 -0.69529,-2.81276 -0.66369,-1.20095 -1.80143,-1.83303 -1.10614,-0.63208 -2.52832,-0.63208 -1.42218,0 -2.55992,0.63208 -1.10614,0.63208 -1.80143,1.83303 -0.66369,1.16935 -0.66369,2.81276 0,1.6118 0.66369,2.81275 0.69529,1.20096 1.80143,1.83304 1.13774,0.63208 2.55992,0.63208 z m 5.11985,3.1604 v -3.98211 l 0.15802,-4.48777 -0.31604,-4.48776 v -10.49253 h 3.91889 v 23.45017 z m 8.46548,0 V 209.1545 h 3.9505 v 16.87654 z m 1.99105,-19.65769 q -1.10614,0 -1.83303,-0.69529 -0.69529,-0.69529 -0.69529,-1.67501 0,-1.01133 0.69529,-1.67501 0.72689,-0.69529 1.83303,-0.69529 1.10614,0 1.80143,0.66368 0.72689,0.63208 0.72689,1.61181 0,1.04293 -0.69528,1.76982 -0.69529,0.69529 -1.83304,0.69529 z m 16.20851,2.59153 q 2.02265,0 3.60285,0.7901 1.61181,0.7901 2.52832,2.4335 0.91652,1.61181 0.91652,4.17173 v 9.67083 h -3.9505 v -9.16516 q 0,-2.24389 -1.07454,-3.35003 -1.04293,-1.10614 -2.93917,-1.10614 -1.39058,0 -2.46511,0.56887 -1.07454,0.56888 -1.67501,1.70662 -0.56888,1.10614 -0.56888,2.81276 v 8.53308 h -3.9505 V 209.1545 h 3.76088 v 4.55098 l -0.66368,-1.39058 q 0.88491,-1.6118 2.55992,-2.46511 1.70662,-0.88491 3.9189,-0.88491 z m 19.25175,23.41856 q -2.3387,0 -4.58258,-0.63208 -2.21228,-0.60048 -3.63446,-1.76982 l 1.76982,-2.97078 q 1.10614,0.91652 2.78115,1.45378 1.70662,0.56888 3.44484,0.56888 2.78115,0 4.07692,-1.29577 1.29576,-1.26416 1.29576,-3.82408 v -3.00238 l 0.31604,-3.82409 -0.12642,-3.82408 v -4.10852 h 3.76088 v 14.31661 q 0,4.58258 -2.3387,6.73165 -2.33869,2.18068 -6.76325,2.18068 z m -0.50567,-7.1109 q -2.4019,0 -4.36135,-1.01133 -1.92784,-1.04293 -3.06559,-2.87596 -1.10614,-1.83303 -1.10614,-4.29815 0,-2.4335 1.10614,-4.26654 1.13775,-1.83303 3.06559,-2.84436 1.95945,-1.01132 4.36135,-1.01132 2.14908,0 3.85569,0.8533 1.70662,0.85331 2.71795,2.65474 1.04293,1.80143 1.04293,4.61418 0,2.81276 -1.04293,4.64579 -1.01133,1.80143 -2.71795,2.68634 -1.70661,0.85331 -3.85569,0.85331 z m 0.60048,-3.35002 q 1.48539,0 2.65474,-0.60048 1.16934,-0.63208 1.80142,-1.70662 0.66369,-1.10614 0.66369,-2.52832 0,-1.42218 -0.66369,-2.49671 -0.63208,-1.10614 -1.80142,-1.67501 -1.16935,-0.60048 -2.65474,-0.60048 -1.48539,0 -2.68634,0.60048 -1.16935,0.56887 -1.83303,1.67501 -0.63208,1.07453 -0.63208,2.49671 0,1.42218 0.63208,2.52832 0.66368,1.07454 1.83303,1.70662 1.20095,0.60048 2.68634,0.60048 z m 18.89481,4.32974 q -2.11747,0 -4.07692,-0.53726 -1.92784,-0.56888 -3.06559,-1.35898 l 1.51699,-3.00238 q 1.13775,0.7269 2.71795,1.20096 1.5802,0.47406 3.1604,0.47406 1.86463,0 2.68634,-0.50567 0.85331,-0.50566 0.85331,-1.35897 0,-0.69529 -0.56887,-1.04293 -0.56888,-0.37925 -1.48539,-0.56887 -0.91652,-0.18963 -2.05426,-0.34765 -1.10614,-0.15802 -2.24389,-0.41085 -1.10614,-0.28444 -2.02265,-0.7901 -0.91652,-0.53727 -1.48539,-1.42218 -0.56887,-0.88491 -0.56887,-2.3387 0,-1.6118 0.91651,-2.78115 0.91652,-1.20095 2.55993,-1.83303 1.67501,-0.66368 3.9505,-0.66368 1.70661,0 3.44483,0.37924 1.73822,0.37925 2.87597,1.07454 l -1.51699,3.00238 q -1.20096,-0.72689 -2.43351,-0.97972 -1.20096,-0.28444 -2.40191,-0.28444 -1.80143,0 -2.68634,0.53727 -0.85331,0.53727 -0.85331,1.35897 0,0.7585 0.56888,1.13774 0.56887,0.37925 1.48538,0.60048 0.91652,0.22123 2.02266,0.37925 1.13774,0.12641 2.24389,0.41085 1.10614,0.28444 2.02265,0.7901 0.94812,0.47406 1.51699,1.35897 0.56888,0.88491 0.56888,2.30709 0,1.5802 -0.94812,2.74955 -0.91652,1.16935 -2.62314,1.83303 -1.70661,0.63208 -4.07691,0.63208 z"
     id="text3"
     transform="scale(1.0151 .98517)"
     aria-label="recordings" /><rect
     width="256"
     height="18.241"
     fill="#f054ac"
     opacity=".999"
     id="rect3" /></svg>
