<?xml version="1.0" encoding="UTF-8" standalone="no"?>
<svg
   viewBox="0 0 133.64975 57.137734"
   version="1.1"
   id="svg3"
   xml:space="preserve"
   sodipodi:docname="full-logo.svg"
   inkscape:version="1.3 (0e150ed, 2023-07-21)"
   xmlns:inkscape="http://www.inkscape.org/namespaces/inkscape"
   xmlns:sodipodi="http://sodipodi.sourceforge.net/DTD/sodipodi-0.dtd"
   xmlns="http://www.w3.org/2000/svg"
   xmlns:svg="http://www.w3.org/2000/svg"><sodipodi:namedview
     id="namedview1"
     pagecolor="#ffffff"
     bordercolor="#666666"
     borderopacity="1.0"
     inkscape:showpageshadow="2"
     inkscape:pageopacity="0.0"
     inkscape:pagecheckerboard="0"
     inkscape:deskcolor="#d1d1d1"
     inkscape:zoom="10.093547"
     inkscape:cx="66.824875"
     inkscape:cy="28.533082"
     inkscape:window-width="1920"
     inkscape:window-height="1027"
     inkscape:window-x="0"
     inkscape:window-y="25"
     inkscape:window-maximized="1"
     inkscape:current-layer="svg3" /><defs
     id="defs3" /><path
     d="m 50.460938,16.054688 v 2.421874 12.091797 h 2.404296 V 18.476562 h 8.431641 c 0.69205,0 1.257813,0.56381 1.257813,1.25586 v 10.835937 h 2.421874 V 18.585938 c 0,-1.40231 -1.12895,-2.53125 -2.53125,-2.53125 z m 16.9375,0 v 2.421874 h 14.515624 v -2.421874 z m 16.9375,0 v 11.982421 c 0,1.40231 1.128949,2.53125 2.53125,2.53125 H 98.849609 V 28.146484 H 88.013672 c -0.69205,0 -1.25586,-0.563809 -1.25586,-1.255859 V 16.054688 Z m 16.917972,0 v 14.513671 h 2.42187 V 16.054688 Z m 7.35742,0 c -1.40231,0 -2.51172,1.127618 -2.51172,2.511718 v 9.488282 c 0,1.402309 1.12762,2.513671 2.51172,2.513671 h 9.48828 c 1.38409,0 2.51367,-1.129571 2.51367,-2.513671 v -9.488282 c 0,-1.40231 -1.12958,-2.511718 -2.51367,-2.511718 z m 1.14844,2.404296 h 7.17578 c 0.69205,0 1.23828,0.56381 1.23828,1.25586 v 7.175781 c 0,0.69205 -0.54623,1.238281 -1.23828,1.238281 h -7.17578 c -0.69205,0 -1.23829,-0.546231 -1.23829,-1.238281 v -7.175781 c 0,-0.69205 0.54624,-1.25586 1.23829,-1.25586 z m -42.361332,3.640625 v 2.423829 h 14.515624 v -2.423829 z m 0,6.046875 v 2.421875 h 14.515624 v -2.421875 z"
     style="fill:#000000"
     id="path1" /><path
     id="path3-2"
     style="opacity:0.999;fill:#4b6084;fill-opacity:1;stroke-width:3.80969;stroke-linecap:round"
     d="M 30.600703,11.329565 A 17.696501,17.6965 0 0 0 12.904206,29.026062 17.696501,17.6965 0 0 0 30.600703,46.722564 17.696501,17.6965 0 0 0 48.297206,29.026062 17.696501,17.6965 0 0 0 30.600703,11.329565 Z M 18.503487,20.74217 h 24.193891 v 3.339971 H 18.503487 Z m 5.42e-4,4.917733 H 42.697912 V 37.30996 H 18.504029 Z m 3.681281,2.787492 c -0.635893,1.422387 -0.635893,3.048448 0,4.470841 h 2.629792 v -4.470841 z m 14.200722,0 v 4.470841 h 2.629793 c 0.635893,-1.422393 0.635893,-3.048405 0,-4.470841 z m -9.072642,0.01357 v 4.47057 h 6.574621 v -4.470572 z" /><text
     xml:space="preserve"
     style="font-style:normal;font-variant:normal;font-weight:normal;font-stretch:normal;font-size:26.6667px;line-height:1.25;font-family:'Apple Braille';-inkscape-font-specification:'Apple Braille'"
     x="63.691452"
     y="6.6809216"
     id="text3"><tspan
       id="tspan3"
       x="63.691452"
       y="6.6809216"
       style="font-style:normal;font-variant:normal;font-weight:normal;font-stretch:normal;font-family:Arial;-inkscape-font-specification:Arial" /></text><path
     style="font-size:13.1856px;line-height:1.25;font-family:Montserrat;-inkscape-font-specification:Montserrat;fill:#4b6084"
     d="m 49.803772,43.313351 v -6.92244 h 0.896621 v 1.88554 l -0.0923,-0.32964 q 0.290083,-0.791136 0.975734,-1.199889 0.685652,-0.421939 1.700943,-0.421939 v 0.909806 q -0.05274,0 -0.105485,0 -0.05274,-0.01319 -0.105485,-0.01319 -1.094405,0 -1.714128,0.672466 -0.619723,0.65928 -0.619723,1.885541 v 3.533741 z m 8.059879,0.06593 q -1.081219,0 -1.898726,-0.448311 -0.817507,-0.461496 -1.279003,-1.252632 -0.461496,-0.804321 -0.461496,-1.832798 0,-1.028477 0.435124,-1.819613 0.448311,-0.791136 1.213076,-1.239446 0.77795,-0.461496 1.740499,-0.461496 0.975734,0 1.727313,0.44831 0.764765,0.435125 1.19989,1.239446 0.435125,0.791136 0.435125,1.832799 0,0.06593 -0.01319,0.145041 0,0.06593 0,0.145042 h -6.025819 v -0.698837 h 5.524767 l -0.369197,0.276898 q 0,-0.751579 -0.32964,-1.331746 -0.316455,-0.593352 -0.87025,-0.922992 -0.553795,-0.32964 -1.279003,-0.32964 -0.712023,0 -1.279003,0.32964 -0.566981,0.32964 -0.883436,0.922992 -0.316454,0.593352 -0.316454,1.358117 v 0.145042 q 0,0.791136 0.342826,1.397673 0.356011,0.593352 0.975734,0.936178 0.632909,0.32964 1.43723,0.32964 0.632909,0 1.173519,-0.224155 0.553795,-0.224156 0.949363,-0.685652 l 0.527424,0.606538 q -0.461496,0.553795 -1.160333,0.843878 -0.685651,0.290084 -1.516344,0.290084 z m 7.898151,0 q -1.028477,0 -1.845984,-0.448311 -0.804322,-0.461496 -1.265818,-1.252632 -0.461496,-0.804321 -0.461496,-1.832798 0,-1.041663 0.461496,-1.832799 0.461496,-0.791136 1.265818,-1.239446 0.817507,-0.44831 1.845984,-0.44831 0.883435,0 1.595457,0.342825 0.712023,0.342826 1.120776,1.028477 l -0.698836,0.474682 q -0.356012,-0.527424 -0.883436,-0.777951 -0.527424,-0.250526 -1.147147,-0.250526 -0.738394,0 -1.331746,0.342825 -0.593352,0.32964 -0.936177,0.936178 -0.342826,0.606538 -0.342826,1.424045 0,0.817507 0.342826,1.424045 0.342825,0.606537 0.936177,0.949363 0.593352,0.32964 1.331746,0.32964 0.619723,0 1.147147,-0.250527 0.527424,-0.250526 0.883436,-0.764764 l 0.698836,0.474681 q -0.408753,0.672466 -1.120776,1.028477 -0.712022,0.342826 -1.595457,0.342826 z m 7.253825,0 q -1.002105,0 -1.806427,-0.448311 -0.791136,-0.461496 -1.252632,-1.252632 -0.461496,-0.804321 -0.461496,-1.832798 0,-1.041663 0.461496,-1.832799 0.461496,-0.791136 1.252632,-1.239446 0.791136,-0.44831 1.806427,-0.44831 1.028477,0 1.819613,0.44831 0.804322,0.44831 1.252632,1.239446 0.461496,0.791136 0.461496,1.832799 0,1.028477 -0.461496,1.832798 -0.44831,0.791136 -1.252632,1.252632 -0.804321,0.448311 -1.819613,0.448311 z m 0,-0.830693 q 0.75158,0 1.331746,-0.32964 0.580166,-0.342826 0.909806,-0.949363 0.342826,-0.619724 0.342826,-1.424045 0,-0.817507 -0.342826,-1.424045 -0.32964,-0.606538 -0.909806,-0.936178 -0.580166,-0.342825 -1.31856,-0.342825 -0.738394,0 -1.31856,0.342825 -0.580166,0.32964 -0.922992,0.936178 -0.342826,0.606538 -0.342826,1.424045 0,0.804321 0.342826,1.424045 0.342826,0.606537 0.922992,0.949363 0.580166,0.32964 1.305374,0.32964 z m 5.445639,0.764765 v -6.92244 h 0.896621 v 1.88554 l -0.0923,-0.32964 q 0.290084,-0.791136 0.975735,-1.199889 0.685651,-0.421939 1.700942,-0.421939 v 0.909806 q -0.05274,0 -0.105484,0 -0.05274,-0.01319 -0.105485,-0.01319 -1.094405,0 -1.714128,0.672466 -0.619724,0.65928 -0.619724,1.885541 v 3.533741 z m 7.875282,0.06593 q -0.98892,0 -1.780056,-0.448311 -0.777951,-0.44831 -1.226261,-1.239446 -0.44831,-0.804322 -0.44831,-1.845984 0,-1.054848 0.44831,-1.845984 0.44831,-0.791136 1.226261,-1.226261 0.791136,-0.44831 1.780056,-0.44831 0.909806,0 1.621829,0.408753 0.725208,0.408754 1.147147,1.19989 0.435125,0.77795 0.435125,1.911912 0,1.120776 -0.421939,1.911912 -0.42194,0.791136 -1.147148,1.213075 -0.712022,0.408754 -1.635014,0.408754 z m 0.06593,-0.830693 q 0.738393,0 1.31856,-0.32964 0.593352,-0.342826 0.922992,-0.949363 0.342826,-0.619724 0.342826,-1.424045 0,-0.817507 -0.342826,-1.424045 -0.32964,-0.606538 -0.922992,-0.936178 -0.580167,-0.342825 -1.31856,-0.342825 -0.725208,0 -1.305375,0.342825 -0.580166,0.32964 -0.922992,0.936178 -0.342825,0.606538 -0.342825,1.424045 0,0.804321 0.342825,1.424045 0.342826,0.606537 0.922992,0.949363 0.580167,0.32964 1.305375,0.32964 z m 2.610749,0.764765 v -2.083325 l 0.0923,-1.397674 -0.131856,-1.397673 v -4.905044 h 0.936178 v 9.783716 z m 3.507363,0 v -6.92244 h 0.936178 v 6.92244 z m 0.474682,-8.45197 q -0.290083,0 -0.487867,-0.197784 -0.197784,-0.197784 -0.197784,-0.474682 0,-0.276897 0.197784,-0.461496 0.197784,-0.197784 0.487867,-0.197784 0.290083,0 0.487867,0.184599 0.197784,0.184598 0.197784,0.461496 0,0.290083 -0.197784,0.487867 -0.184598,0.197784 -0.487867,0.197784 z m 6.605972,1.463602 q 0.843878,0 1.476788,0.32964 0.64609,0.316454 1.00211,0.975734 0.36919,0.65928 0.36919,1.661386 v 4.021608 h -0.93618 v -3.929309 q 0,-1.094405 -0.55379,-1.6482 -0.54061,-0.566981 -1.529531,-0.566981 -0.738393,0 -1.292188,0.303269 -0.54061,0.290083 -0.843879,0.857064 -0.290083,0.553795 -0.290083,1.344931 v 3.639226 h -0.936178 v -6.92244 h 0.896621 v 1.898726 l -0.145041,-0.356011 q 0.32964,-0.751579 1.054848,-1.173519 0.725208,-0.435124 1.727313,-0.435124 z m 8.333278,9.612302 q -0.94936,0 -1.81961,-0.276897 -0.87025,-0.276898 -1.41086,-0.791136 l 0.47468,-0.712023 q 0.48787,0.435125 1.19989,0.685651 0.72521,0.263712 1.52953,0.263712 1.31856,0 1.93829,-0.619723 0.61972,-0.606538 0.61972,-1.898726 v -1.727314 l 0.13186,-1.186704 -0.0923,-1.186704 v -2.09651 h 0.89662 v 6.078561 q 0,1.793242 -0.88344,2.623935 -0.87025,0.843878 -2.58438,0.843878 z m -0.17141,-2.887646 q -0.98892,0 -1.78005,-0.42194 -0.79114,-0.435124 -1.25264,-1.199889 -0.44831,-0.764765 -0.44831,-1.753685 0,-0.98892 0.44831,-1.740499 0.4615,-0.764765 1.25264,-1.186704 0.79113,-0.421939 1.78005,-0.421939 0.92299,0 1.66139,0.382382 0.73839,0.382382 1.17352,1.133962 0.43512,0.751579 0.43512,1.832798 0,1.081219 -0.43512,1.832798 -0.43513,0.75158 -1.17352,1.147148 -0.7384,0.395568 -1.66139,0.395568 z m 0.0923,-0.830693 q 0.76477,0 1.35812,-0.316455 0.59335,-0.32964 0.93617,-0.89662 0.34283,-0.580167 0.34283,-1.331746 0,-0.751579 -0.34283,-1.31856 -0.34282,-0.566981 -0.93617,-0.883435 -0.59335,-0.32964 -1.35812,-0.32964 -0.75158,0 -1.35812,0.32964 -0.59335,0.316454 -0.93617,0.883435 -0.32964,0.566981 -0.32964,1.31856 0,0.751579 0.32964,1.331746 0.34282,0.56698 0.93617,0.89662 0.60654,0.316455 1.35812,0.316455 z m 8.01684,1.160333 q -0.85707,0 -1.62183,-0.237341 -0.76477,-0.250527 -1.19989,-0.619723 l 0.42194,-0.738394 q 0.42194,0.316454 1.08122,0.553795 0.65928,0.224155 1.38448,0.224155 0.98892,0 1.42405,-0.303268 0.43512,-0.316455 0.43512,-0.830693 0,-0.382383 -0.25052,-0.593352 -0.23734,-0.224155 -0.63291,-0.32964 -0.39557,-0.118671 -0.88344,-0.197784 -0.48786,-0.07911 -0.97573,-0.184599 -0.47468,-0.105484 -0.87025,-0.303268 -0.39557,-0.21097 -0.64609,-0.566981 -0.23735,-0.356011 -0.23735,-0.949363 0,-0.566981 0.31646,-1.015292 0.31645,-0.44831 0.92299,-0.698836 0.61972,-0.263712 1.50316,-0.263712 0.67247,0 1.34493,0.184598 0.67247,0.171413 1.10759,0.461496 l -0.40875,0.751579 q -0.4615,-0.316454 -0.98892,-0.44831 -0.52743,-0.145042 -1.05485,-0.145042 -0.93618,0 -1.38449,0.32964 -0.43512,0.316455 -0.43512,0.817507 0,0.395568 0.23734,0.619724 0.25052,0.224155 0.64609,0.356011 0.40876,0.11867 0.88344,0.197784 0.48786,0.07911 0.96255,0.197784 0.48786,0.105485 0.88343,0.303269 0.40875,0.184598 0.6461,0.540609 0.25052,0.342826 0.25052,0.909807 0,0.606537 -0.34282,1.054848 -0.32964,0.435124 -0.97574,0.685651 -0.63291,0.237341 -1.54271,0.237341 z"
     id="text1"
     transform="scale(1.0150526,0.98517063)"
     aria-label="recordings" /></svg>
